<?xml version="1.0" encoding="UTF-8"?>
<svg xmlns="http://www.w3.org/2000/svg" xmlns:xlink="http://www.w3.org/1999/xlink" viewBox="0 0 64 64" width="64px" height="64px">
<defs>
<linearGradient id="linear0" gradientUnits="userSpaceOnUse" x1="86" y1="147.8125" x2="86" y2="24.1875" gradientTransform="matrix(0.372093,0,0,0.372093,0,0)">
<stop offset="0" style="stop-color:rgb(96.078432%,32.941177%,28.235295%);stop-opacity:1;"/>
<stop offset="1" style="stop-color:rgb(69.411767%,16.470589%,16.470589%);stop-opacity:1;"/>
</linearGradient>
<linearGradient id="linear1" gradientUnits="userSpaceOnUse" x1="86" y1="81.992943" x2="86" y2="61.8125" gradientTransform="matrix(0.372093,0,0,0.372093,0,0)">
<stop offset="0" style="stop-color:rgb(98.431373%,71.764708%,69.803923%);stop-opacity:1;"/>
<stop offset="1" style="stop-color:rgb(86.666667%,43.137255%,43.137255%);stop-opacity:1;"/>
</linearGradient>
</defs>
<g id="surface72384058">
<path style=" stroke:none;fill-rule:nonzero;fill:url(#linear0);" d="M 50 9 L 14 9 C 11.199219 9 9 11.199219 9 14 L 9 50 C 9 52.800781 11.199219 55 14 55 L 50 55 C 52.800781 55 55 52.800781 55 50 L 55 14 C 55 11.199219 52.800781 9 50 9 Z M 53 50 C 53 51.699219 51.699219 53 50 53 L 14 53 C 12.300781 53 11 51.699219 11 50 L 11 14 C 11 12.300781 12.300781 11 14 11 L 50 11 C 51.699219 11 53 12.300781 53 14 Z M 45 19 L 19 19 C 17.347656 19 16 20.347656 16 22 L 16 42 C 16 43.652344 17.347656 45 19 45 L 45 45 C 46.652344 45 48 43.652344 48 42 L 48 22 C 48 20.347656 46.652344 19 45 19 Z M 44.871094 21 L 33.414062 32.453125 C 32.734375 33.136719 31.550781 33.136719 30.867188 32.453125 L 19.414062 21 Z M 18 41.585938 L 18 22.414062 L 27.585938 32 Z M 19.414062 43 L 29 33.414062 L 29.453125 33.867188 C 30.171875 34.585938 31.128906 34.980469 32.140625 34.980469 C 33.15625 34.980469 34.113281 34.585938 34.828125 33.867188 L 35.152344 33.546875 L 44.84375 43 Z M 46 41.332031 L 36.566406 32.132812 L 46 22.699219 Z M 27 41 L 37 41 L 37 39 L 27 39 Z M 27 41 "/>
<path style=" stroke:none;fill-rule:nonzero;fill:url(#linear1);" d="M 25.691406 23 L 38.308594 23 C 38.84375 23 39.109375 23.644531 38.734375 24.023438 L 32.425781 30.332031 C 32.191406 30.566406 31.808594 30.566406 31.574219 30.332031 L 25.265625 24.023438 C 24.890625 23.644531 25.15625 23 25.691406 23 Z M 25.691406 23 "/>
</g>
</svg>
