<svg width="187" height="49" viewBox="0 0 187 49" fill="none" xmlns="http://www.w3.org/2000/svg">
<path d="M4.32877 11.2085L3.83652 11.1386L3.74277 11.1387C3.35215 11.139 2.94578 10.983 2.52366 10.6709C2.11717 10.3587 1.91362 9.80415 1.913 9.00727C1.91239 8.2104 2.34138 7.30382 3.19997 6.28753C4.07418 5.27123 5.25315 4.34063 6.73687 3.49573C8.22059 2.63521 10.0638 1.93067 12.2665 1.38209C14.4848 0.833501 16.8205 0.55826 19.2737 0.556366C24.2893 0.552493 28.2041 1.54166 31.0182 3.52386C33.8478 5.49043 35.2638 8.05183 35.2663 11.2081C35.2678 13.1768 34.8318 15.1459 33.9583 17.1153C33.0849 19.0848 31.9144 20.906 30.4469 22.579C28.9795 24.2364 27.2541 25.7924 25.2708 27.2471C23.2876 28.6861 21.2104 29.9143 19.0393 30.9316C14.3535 33.0914 9.86994 34.173 5.58869 34.1763C3.47931 34.1779 2.15106 34.0071 1.60392 33.6638C1.40071 33.5546 1.19746 33.3906 0.994162 33.1721C0.806481 32.9378 0.657923 32.7817 0.548488 32.7036C0.251468 32.5164 0.102723 32.1181 0.102252 31.5087C0.10177 30.8837 0.163835 30.3211 0.288449 29.821C0.755908 28.1488 2.85467 24.5222 6.58474 18.9412C10.3304 13.3445 13.4597 8.8343 15.9727 5.41048C16.1444 5.17597 17.0271 5.00341 18.6208 4.89281C19.277 4.8923 19.7302 4.93883 19.9803 5.03238C20.2303 5.12594 20.3555 5.29772 20.3557 5.54772C20.3558 5.78209 19.9501 6.46991 19.1385 7.61116C18.3269 8.73679 15.7205 12.6997 11.3195 19.5C6.91853 26.2847 4.7181 29.7707 4.71824 29.9582C4.71839 30.1457 5.40596 30.239 6.78096 30.2379C8.17159 30.2368 9.87449 29.9464 11.8897 29.3668C13.9205 28.7714 15.8261 27.9965 17.6066 27.042C19.3871 26.0875 21.0894 24.9847 22.7134 23.7334C24.3375 22.4665 25.7271 21.1764 26.8823 19.863C29.4114 16.986 30.675 14.4304 30.6733 12.196C30.6716 9.96163 29.6467 8.06398 27.5986 6.50306C25.5661 4.94213 22.7765 4.16304 19.2296 4.16578C16.839 4.16762 14.5815 4.5678 12.4571 5.36632C10.3327 6.16483 8.8723 6.8769 8.07591 7.50251C7.27951 8.12813 6.8814 8.55031 6.88157 8.76906C6.88167 8.89406 6.97547 8.95649 7.16297 8.95634L8.17063 8.76807C8.31126 8.76796 8.38159 8.79915 8.38164 8.86165C8.38169 8.92415 8.24896 9.03363 7.98346 9.19009C7.71795 9.34654 7.49934 9.51859 7.32761 9.70622C7.17149 9.87821 6.76546 10.1676 6.10953 10.5743C5.45358 10.9655 4.85999 11.1769 4.32877 11.2085ZM48.3251 16.6121C48.3259 17.6433 47.9048 18.5499 47.0616 19.3318C46.2341 20.1137 45.2891 20.505 44.2266 20.5059C43.8828 20.5061 43.6562 20.4282 43.5467 20.272C43.4372 20.1002 43.3823 19.8815 43.3821 19.6159C43.3819 19.3503 43.413 19.0924 43.4753 18.8424C42.9129 19.0303 42.2882 19.3199 41.601 19.711C40.9138 20.1022 40.0705 20.6809 39.0711 21.4473C38.0716 22.2137 37.5721 22.7844 37.5724 23.1594C37.5725 23.2844 37.7522 23.3468 38.1116 23.3465C38.4866 23.3462 39.0568 23.2208 39.8222 22.9702C40.5877 22.704 41.1188 22.5708 41.4157 22.5705C41.7282 22.5703 41.9313 22.5858 42.0251 22.6169C42.2283 22.7261 42.4472 22.9682 42.6819 23.343C42.9165 23.7022 43.034 23.9912 43.0341 24.2099C43.0343 24.413 42.8314 24.6866 42.4254 25.0307C42.0194 25.3747 41.5587 25.6407 41.0432 25.8286C40.5277 26.0009 40.1841 26.134 40.0122 26.2279C36.7168 28.0742 35.0693 29.3411 35.0699 30.0286C35.0708 31.2473 36.1103 31.8559 38.1885 31.8543C39.5166 31.8532 40.8522 31.4303 42.1953 30.5856C43.3354 29.8659 44.3582 29.1386 45.2639 28.4035C46.1852 27.6528 46.763 27.1914 46.9972 27.0193C47.2471 26.8473 47.4345 26.7612 47.5595 26.7611C47.9658 26.7608 48.1693 27.2138 48.17 28.12C48.1707 29.0262 48.1164 29.6279 48.0073 29.9248C47.8981 30.2061 47.5859 30.558 47.0706 30.9802C43.729 33.7016 40.5659 35.0634 37.5816 35.0657C35.9878 35.0669 34.7142 34.8491 33.7608 34.4124C32.0101 33.6169 31.1342 32.3988 31.1329 30.7582C31.1313 28.6019 32.6222 26.9679 35.6057 25.8563C35.0118 25.5911 34.6287 25.2555 34.4565 24.8493C34.2843 24.4276 34.1978 23.7636 34.1971 22.8573C34.1964 21.9355 34.6176 20.9664 35.4605 19.9501C36.3191 18.9182 37.3653 18.0737 38.5992 17.4164C41.348 15.93 43.8006 15.1859 45.9568 15.1842C46.4725 15.1838 46.996 15.3084 47.5275 15.558C48.0589 15.8076 48.3248 16.1589 48.3251 16.6121ZM50.0226 29.4545L49.9994 29.8295C49.9997 30.2202 50.1484 30.556 50.4455 30.837C50.7426 31.118 51.0161 31.2584 51.2661 31.2582C53.1411 31.2568 54.7972 30.9743 56.2342 30.4106C57.6869 29.847 58.4131 29.284 58.4126 28.7215C58.4124 28.4558 58.1466 28.2295 57.6152 28.0424C57.0994 27.8397 56.2164 27.5982 54.9662 27.3179C53.7316 27.022 52.833 26.7961 52.2704 26.6403C51.7078 26.4688 51.2623 26.3129 50.9341 26.1726C50.6059 26.0322 50.2698 25.8371 49.9258 25.5874C49.191 25.0723 48.8233 24.307 48.8225 23.2914C48.8217 22.2601 49.1959 21.2442 49.9451 20.2436C50.71 19.2274 51.6624 18.3595 52.8025 17.6399C53.9426 16.9202 55.1686 16.2865 56.4807 15.7386C59.0736 14.6585 61.2529 14.1177 63.0185 14.1163C64.7529 14.115 65.8235 14.4892 66.2303 15.2389C66.3555 15.5044 66.4183 15.8012 66.4185 16.1293L66.4186 16.2934C66.4193 17.1215 66.2401 17.7701 65.8811 18.2391C65.5377 18.7081 64.9833 19.1305 64.218 19.506C63.4683 19.8816 62.8669 20.0696 62.4138 20.0699C61.9763 20.0703 61.695 20.0392 61.5699 19.9768C61.4605 19.9144 61.3667 19.8364 61.2885 19.7427C61.2103 19.6334 61.1087 19.5553 60.9836 19.5085C60.8742 19.4618 60.8194 19.3446 60.8193 19.1571C60.8192 18.9696 60.8971 18.782 61.0532 18.5944C61.2093 18.3912 61.3185 18.1802 61.3809 17.9614C60.3497 18.009 59.2717 18.252 58.1471 18.6904C57.0224 19.1132 56.054 19.5905 55.2419 20.1223C54.4454 20.6542 53.7818 21.1625 53.2509 21.6473C52.72 22.1321 52.4547 22.4917 52.4549 22.7261C52.455 22.9448 52.8145 23.1242 53.5334 23.2643C56.7683 23.9024 58.8937 24.4555 59.9097 24.9234C60.9257 25.3914 61.6292 25.9221 62.0203 26.5156C62.4114 27.109 62.6071 27.6479 62.6075 28.1323C62.6082 29.1323 62.2105 30.0779 61.4144 30.9691C60.6182 31.8604 59.6344 32.5877 58.4629 33.1511C55.9482 34.3874 53.7534 35.0063 51.8784 35.0078C50.019 35.0092 48.7297 34.7211 48.0106 34.1436C47.307 33.5816 46.9549 32.91 46.9543 32.1288C46.9537 31.3475 47.1485 30.6286 47.5386 29.9721C47.9443 29.2999 48.4597 28.9635 49.0847 28.963C49.7097 28.9626 50.0223 29.1264 50.0226 29.4545ZM80.3503 28.9155C81.1624 28.3992 81.6855 28.0472 81.9198 27.8596C82.154 27.6563 82.4272 27.4217 82.7395 27.1558C83.0518 26.8899 83.3095 26.7569 83.5127 26.7568C83.8252 26.7565 83.9817 27.1158 83.9823 27.8345C83.9828 28.5377 83.6318 29.3036 82.9293 30.1322C82.2425 30.9453 81.3836 31.6412 80.3528 32.2202C79.322 32.7834 78.2208 33.2765 77.0493 33.6993C74.7218 34.5604 72.7378 34.9917 71.0972 34.9929C69.4722 34.9942 68.003 34.4641 66.6897 33.4026C65.3763 32.3255 64.719 30.9275 64.7177 29.2088C64.7163 27.4744 65.1447 25.7475 66.0027 24.0281C66.8608 22.2931 67.9612 20.7766 69.3039 19.4787C70.6623 18.1651 72.2318 17.1014 74.0124 16.2875C75.8086 15.4737 77.5818 15.066 79.3318 15.0647C80.1755 15.064 80.9335 15.3056 81.6058 15.7895C82.278 16.2733 82.6145 16.9372 82.6151 17.7809C82.6158 18.6246 82.1947 19.6406 81.3518 20.8288C80.5246 22.0013 79.6813 22.5879 78.822 22.5885C77.822 22.5893 77.3216 22.1131 77.3208 21.16C77.3207 20.91 77.5547 20.4645 78.0229 19.8235C78.4912 19.1825 78.7252 18.7527 78.7251 18.5339C78.7249 18.2995 78.6389 18.1824 78.467 18.1825C77.6076 18.1832 76.686 18.4808 75.702 19.0753C74.7181 19.6698 73.8202 20.2955 73.0082 20.9524C72.2118 21.6092 71.4546 22.3442 70.7364 23.1573C69.1753 24.9241 68.3955 26.7606 68.397 28.6669C68.3975 29.4325 68.6402 30.0964 69.1251 30.6585C69.6255 31.205 70.4538 31.4778 71.6101 31.4769C72.7819 31.476 73.9537 31.3423 75.1254 31.0757C76.297 30.7936 77.2577 30.496 78.0075 30.1829C78.7729 29.8542 79.5538 29.4317 80.3503 28.9155ZM90.3054 21.3375C93.9896 17.1471 97.1286 15.0509 99.7224 15.0489C100.363 15.0484 100.887 15.2434 101.293 15.6337C101.715 16.0083 101.927 16.5004 101.927 17.1097C101.928 17.7191 101.491 18.7429 100.617 20.1811C99.7587 21.6036 98.9628 22.8073 98.2291 23.7923C97.8389 24.2926 97.3938 24.5429 96.8938 24.5433C96.4094 24.5437 96.0265 24.3643 95.7449 24.0051C95.479 23.646 95.3459 23.2242 95.3455 22.7398C95.3447 21.6617 95.9219 20.4425 97.0771 19.0822L97.0302 19.0354C96.5146 19.0827 95.2341 20.0993 93.1888 22.0852C91.159 24.0712 89.426 25.8538 87.9898 27.433C86.5691 28.9966 85.0237 30.904 83.3535 33.1553C82.8697 33.8276 82.4559 34.1638 82.1121 34.1641C81.784 34.1644 81.3464 34.0631 80.7994 33.8604C80.2367 33.6421 79.9007 33.4861 79.7912 33.3925C79.6662 33.2988 79.6035 33.1426 79.6034 32.9239C79.6032 32.7051 79.6655 32.4551 79.7903 32.1737C79.9151 31.8767 80.1491 31.4625 80.4925 30.931C80.8202 30.3995 81.3195 29.5397 81.9905 28.3517C82.677 27.1637 83.7382 25.366 85.1738 22.9586C86.6094 20.5513 87.4677 19.0975 87.7486 18.5972C88.3415 17.5655 88.8253 16.8152 89.1999 16.3461C89.9024 15.455 91.0895 15.0087 92.7614 15.0074C93.1364 15.0072 93.3241 15.2414 93.3245 15.7101C93.325 16.4445 92.6464 17.8278 91.2886 19.8601L90.3054 21.3375ZM114.67 8.35771C114.671 9.24833 114.258 10.1471 113.43 11.054C112.603 11.9452 111.736 12.3912 110.83 12.3919C109.939 12.3926 109.493 11.9242 109.493 10.9867C109.492 10.0492 109.882 9.15828 110.663 8.31393C111.459 7.45394 112.333 7.02358 113.287 7.02284C113.708 7.02251 114.044 7.13944 114.295 7.37362C114.545 7.60781 114.67 7.93583 114.67 8.35771ZM110.889 28.8216C110.89 29.2903 110.843 29.6263 110.749 29.8295C109.985 31.3926 108.767 32.6591 107.096 33.6292C105.425 34.5836 103.972 35.0613 102.738 35.0622C101.503 35.0632 100.441 34.65 99.5494 33.8225C98.6581 32.9951 98.2122 32.1517 98.2115 31.2923C98.2108 30.4329 98.6395 29.1826 99.4977 27.5413C100.356 25.9 101.214 24.3837 102.072 22.9924C102.931 21.6012 103.36 20.8508 103.36 20.7414C103.359 20.6164 103.195 20.3822 102.867 20.0387C102.554 19.6952 102.398 19.4453 102.398 19.2891C102.397 19.1172 102.717 18.6873 103.357 17.9993C104.013 17.2956 104.802 16.6075 105.723 15.9349C106.66 15.2467 107.371 14.9024 107.855 14.902C108.355 14.9016 108.801 15.1201 109.192 15.5573C109.582 15.9945 109.778 16.3927 109.778 16.7521C109.779 17.1115 107.922 20.4957 104.208 26.9049C104.161 26.9986 104.029 27.2097 103.81 27.538C103.607 27.8506 103.443 28.1164 103.319 28.3352C103.209 28.5384 103.077 28.7885 102.921 29.0855C102.609 29.7108 102.453 30.2343 102.453 30.6562C102.454 31.1875 102.813 31.4528 103.532 31.4523C104.251 31.4517 104.993 31.2089 105.758 30.724C106.539 30.2234 107.21 29.676 107.772 29.0818C109.24 27.5025 110.075 26.7128 110.278 26.7127C110.685 26.7124 110.888 27.4153 110.889 28.8216ZM122.218 9.14876L122.64 9.10156C122.874 9.10137 123.062 9.30435 123.203 9.7105C123.344 10.1166 123.414 10.39 123.414 10.5306C123.414 10.6713 123.258 10.937 122.946 11.3279L116.274 21.5049C118.616 19.1594 120.998 17.4466 123.419 16.3666C124.356 15.9596 125.2 15.7558 125.95 15.7553C126.715 15.7547 127.325 16.0042 127.778 16.5038C128.247 16.9879 128.482 17.597 128.483 18.3314C128.483 19.0658 128.281 19.9722 127.875 21.0506C127.47 22.1291 126.916 23.2779 126.214 24.4972C125.528 25.7165 124.685 26.9437 123.686 28.1789C122.702 29.414 121.664 30.532 120.571 31.5328C119.494 32.5337 118.315 33.3471 117.034 33.9731C115.753 34.5991 114.628 34.9124 113.66 34.9132C111.706 34.9147 110.729 34.017 110.728 32.2201C108.902 35.0184 106.795 38.3325 104.407 42.1625C102.02 45.9925 100.74 48.0169 100.568 48.2358C100.397 48.4547 100.256 48.5642 100.147 48.5642C100.022 48.5643 99.842 48.4942 99.6075 48.3537C99.3574 48.2133 99.0994 47.9791 98.8335 47.6512C98.5676 47.3233 98.4344 46.8468 98.434 46.2218C98.4178 45.5968 98.597 44.9639 98.9716 44.323C101.078 40.8057 105.136 34.1932 111.144 24.4854C117.167 14.762 120.429 9.73607 120.929 9.40756C121.21 9.21985 121.491 9.12588 121.773 9.12566L122.218 9.14876ZM124.289 19.9284C124.288 19.6003 124.132 19.4363 123.82 19.4366C122.976 19.4372 121.188 20.7355 118.455 23.3314C115.739 25.9272 113.576 28.2961 111.969 30.4379C112.375 30.9376 112.977 31.1871 113.774 31.1865C114.571 31.1859 115.602 30.7554 116.867 29.8951C118.132 29.0347 119.303 28.0182 120.38 26.8455C121.457 25.6572 122.378 24.4143 123.143 23.1168C123.907 21.8193 124.289 20.7565 124.289 19.9284ZM144.081 3.88187L145.042 4.11551C145.183 4.1154 145.308 4.18561 145.417 4.32615C145.527 4.46669 145.582 4.59946 145.582 4.72446C145.582 4.84946 145.418 5.18553 145.09 5.73266C144.763 6.27979 144.372 6.90509 143.92 7.60856C143.483 8.2964 143.249 8.67158 143.218 8.7341C144.436 8.63941 145.296 8.59187 145.796 8.59149C146.311 8.59109 146.663 8.62988 146.85 8.70786C147.038 8.77022 147.249 8.96537 147.484 9.29331C147.734 9.60562 147.961 9.84763 148.164 10.0193C148.367 10.1754 148.469 10.4175 148.469 10.7457C148.469 11.0738 148.266 11.3552 147.86 11.5899C147.47 11.8089 147.048 11.9421 146.595 11.9893C142.97 12.3515 140.97 12.5405 140.595 12.5564C139.331 14.4949 137.56 17.5197 135.282 21.6309C133.02 25.7264 131.819 28.2898 131.679 29.3211C131.617 29.7899 131.586 30.1728 131.586 30.4697C131.586 31.079 131.907 31.3835 132.548 31.383C133.188 31.3825 133.899 31.1397 134.68 30.6548C135.461 30.1542 136.179 29.6145 136.835 29.0359C138.584 27.4721 139.52 26.6901 139.645 26.69C140.052 26.6897 140.255 27.3926 140.256 28.7989C140.257 29.5645 139.906 30.2523 139.203 30.8622C137.626 32.2228 136.299 33.2473 135.221 33.9356C134.144 34.6239 133.066 34.9685 131.988 34.9693C131.753 34.9695 131.535 34.9463 131.331 34.8995C130.081 34.6661 129.159 34.2137 128.565 33.5423C127.986 32.8552 127.696 31.9336 127.695 30.7773C127.71 29.6211 128.053 28.2224 128.723 26.5812C129.41 24.9245 130.268 23.166 131.298 21.3058C132.983 18.2733 134.668 15.4282 136.353 12.7707L135.463 12.8885C133.651 13.0931 132.596 13.1954 132.299 13.1957L132.088 13.1958C131.635 13.1962 131.197 13.1106 130.775 12.939C130.353 12.7519 130.142 12.5255 130.142 12.2598C130.142 11.9942 130.251 11.7363 130.47 11.4861C130.704 11.236 130.844 11.0405 130.891 10.8999C131 10.556 131.406 10.1729 132.109 9.75049C132.827 9.32806 133.366 9.1089 133.726 9.093C134.085 9.06147 134.429 9.03777 134.757 9.02189C135.101 9.006 135.476 8.99008 135.882 8.97414C136.304 8.95819 136.624 8.94232 136.843 8.92653L138.952 8.83115C140.263 6.86138 141.16 5.59507 141.644 5.03219C142.144 4.46931 142.433 4.1644 142.511 4.11746C142.589 4.0549 142.745 4.02353 142.98 4.02335L144.081 3.88187ZM153.53 8.3277C153.53 9.21833 153.117 10.1171 152.29 11.024C151.462 11.9152 150.595 12.3612 149.689 12.3619C148.798 12.3626 148.353 11.8942 148.352 10.9567C148.351 10.0192 148.741 9.12828 149.522 8.28392C150.318 7.42393 151.193 6.99357 152.146 6.99283C152.568 6.99251 152.904 7.10944 153.154 7.34362C153.404 7.5778 153.529 7.90583 153.53 8.3277ZM149.749 28.7916C149.749 29.2603 149.702 29.5963 149.609 29.7995C148.844 31.3626 147.627 32.6291 145.955 33.5992C144.284 34.5536 142.832 35.0313 141.597 35.0322C140.363 35.0332 139.3 34.6199 138.409 33.7925C137.517 32.9651 137.072 32.1217 137.071 31.2623C137.07 30.4029 137.499 29.1526 138.357 27.5113C139.215 25.87 140.073 24.3537 140.932 22.9624C141.79 21.5711 142.219 20.8208 142.219 20.7114C142.219 20.5864 142.055 20.3522 141.726 20.0087C141.413 19.6652 141.257 19.4153 141.257 19.2591C141.257 19.0872 141.577 18.6572 142.217 17.9693C142.873 17.2656 143.661 16.5775 144.582 15.9049C145.519 15.2167 146.23 14.8724 146.714 14.872C147.214 14.8716 147.66 15.0901 148.051 15.5272C148.442 15.9644 148.637 16.3627 148.638 16.7221C148.638 17.0815 146.781 20.4657 143.067 26.8749C143.021 26.9686 142.888 27.1797 142.67 27.508C142.467 27.8206 142.303 28.0864 142.178 28.3052C142.069 28.5084 141.936 28.7585 141.78 29.0555C141.468 29.6808 141.312 30.2043 141.313 30.6262C141.313 31.1575 141.673 31.4228 142.391 31.4222C143.11 31.4217 143.852 31.1789 144.617 30.694C145.398 30.1934 146.07 29.646 146.632 29.0518C148.099 27.4725 148.935 26.6828 149.138 26.6827C149.544 26.6823 149.748 27.3853 149.749 28.7916ZM163.942 16.1947C164.411 16.1943 164.888 16.4049 165.372 16.8264C165.873 17.2479 166.123 17.8961 166.124 18.7711C166.124 19.6305 165.821 20.7557 165.212 22.1468C164.604 23.5223 163.769 24.9292 162.708 26.3675C161.646 27.7902 160.475 29.1348 159.195 30.4015C157.931 31.6524 156.556 32.6847 155.073 33.4984C153.604 34.2964 152.269 34.6959 151.066 34.6968C149.863 34.6977 148.894 34.3235 148.159 33.574C147.439 32.809 147.079 31.7546 147.078 30.4108C147.077 29.0514 147.404 27.5512 148.059 25.9101C148.73 24.2689 149.588 22.8229 150.634 21.5721C151.68 20.3057 152.812 19.172 154.029 18.1711C156.575 16.1222 158.808 15.0971 160.73 15.0956C161.59 15.0949 162.238 15.3054 162.676 15.7269C162.832 15.8674 162.911 15.9923 162.911 16.1017L162.911 16.2423C163.13 16.2109 163.473 16.195 163.942 16.1947ZM161.577 19.3137L161.413 19.3138C160.866 19.3142 160.593 18.916 160.592 18.1191C159.452 18.495 158.257 19.1522 157.008 20.0906C155.758 21.0291 154.642 22.1393 153.659 23.4214C151.661 25.9854 150.647 28.1502 150.617 29.9159C150.617 30.7909 150.938 31.2281 151.579 31.2277C152.219 31.2272 153.172 30.8045 154.437 29.9598C155.702 29.1151 156.951 27.911 158.184 26.3476C159.433 24.7841 160.362 23.4318 160.97 22.2907C161.594 21.134 161.906 20.3525 161.906 19.9462C161.906 19.5244 161.796 19.3135 161.577 19.3137ZM177.851 30.4339C177.852 31.1214 178.321 31.4648 179.259 31.4641C179.759 31.4637 180.383 31.2132 181.133 30.7126C181.898 30.2121 182.585 29.6647 183.194 29.0704C184.818 27.4598 185.739 26.6544 185.958 26.6542C186.364 26.6539 186.568 27.2397 186.569 28.4116C186.57 29.5834 186.203 30.3884 185.469 30.8265C183.236 32.8438 181.511 34.0717 180.292 34.5102C179.605 34.7451 178.847 34.855 178.019 34.8401C177.191 34.8251 176.37 34.4663 175.557 33.7638C174.744 33.0613 174.337 32.2101 174.336 31.2101C174.336 30.1945 174.6 29.0458 175.131 27.7642C175.661 26.4825 176.199 25.3883 176.745 24.4817C177.307 23.5593 177.994 22.4963 178.805 21.2926C179.617 20.0732 180.046 19.315 180.093 19.0181L180.046 18.9713C179.53 19.0186 178.25 20.0352 176.204 22.0211C174.175 24.0071 172.496 25.7349 171.169 27.2047C169.842 28.6745 168.258 30.6367 166.416 33.0912C165.901 33.7635 165.479 34.0997 165.151 34.1C164.823 34.1002 164.385 33.999 163.838 33.7963C163.276 33.578 162.932 33.422 162.807 33.3284C162.682 33.2347 162.619 33.0941 162.619 32.9066C162.619 32.7191 162.673 32.4925 162.783 32.2268C162.892 31.9455 163.001 31.7188 163.11 31.5469C163.204 31.3593 163.368 31.0779 163.602 30.7027C163.836 30.3276 164.296 29.5381 164.983 28.3345C165.685 27.1152 166.754 25.3019 168.189 22.8945C169.625 20.4872 170.483 19.0334 170.764 18.5331C171.357 17.5014 171.841 16.7511 172.216 16.282C172.918 15.3909 174.105 14.9446 175.777 14.9433C176.152 14.9431 176.34 15.1773 176.34 15.646C176.341 16.3804 175.662 17.7637 174.304 19.796L173.321 21.2734C176.022 18.2713 178.302 16.3711 180.16 15.5728C181.066 15.1814 181.879 14.9855 182.597 14.9849C183.332 14.9844 183.91 15.1792 184.332 15.5695C184.77 15.9598 184.989 16.3972 184.989 16.8815C184.99 17.3503 184.826 17.9207 184.499 18.5929C184.171 19.2494 183.835 19.8434 183.492 20.3749C183.164 20.8908 182.727 21.5474 182.181 22.3446C181.635 23.1419 181.338 23.5797 181.292 23.6578C181.245 23.7204 181.12 23.908 180.917 24.2206C180.73 24.5176 180.589 24.7365 180.496 24.8772C180.402 25.0179 180.246 25.268 180.027 25.6276C179.809 25.9715 179.63 26.2607 179.489 26.4952C179.364 26.7296 179.2 27.0188 178.998 27.3627C178.81 27.7066 178.654 28.0036 178.529 28.2537C178.42 28.5038 178.303 28.7773 178.179 29.0743C177.96 29.6213 177.851 30.0746 177.851 30.4339Z" fill="white"/>
</svg>
