<svg id="Layer_1_copy" height="512" viewBox="0 0 512 512" width="512" xmlns="http://www.w3.org/2000/svg" xmlns:xlink="http://www.w3.org/1999/xlink" data-name="Layer 1 copy"><linearGradient id="linear-gradient" gradientUnits="userSpaceOnUse" x1="419.17" x2="-87.223" y1="-75.17" y2="431.223"><stop offset="0" stop-color="#f7941e"/><stop offset="1" stop-color="#ee2a7b"/></linearGradient><linearGradient id="linear-gradient-2" x1="611.17" x2="104.777" xlink:href="#linear-gradient" y1="116.83" y2="623.223"/><linearGradient id="linear-gradient-3" x1="523.766" x2="17.373" xlink:href="#linear-gradient" y1="29.425" y2="535.818"/><path d="m160 160a24 24 0 1 0 24-24 24.027 24.027 0 0 0 -24 24zm32 0a8 8 0 1 1 -8-8 8.009 8.009 0 0 1 8 8z" fill="url(#linear-gradient)"/><path d="m352 352a24 24 0 1 0 24-24 24.027 24.027 0 0 0 -24 24zm32 0a8 8 0 1 1 -8-8 8.009 8.009 0 0 1 8 8z" fill="url(#linear-gradient-2)"/><path d="m423.921 28.115a8 8 0 0 0 -10.63.61l-138.731 138.732 11.313 11.313 89.573-89.57-81.188 130.576a8 8 0 0 0 1.882 10.539l63.53 49.412-208.532 148.952 131.8-143.262a8 8 0 0 0 -.947-11.709l-51.007-40.048 44-44-11.313-11.313-50.381 50.381a8 8 0 0 0 .716 11.949l51.3 40.276-178.141 193.63a8 8 0 0 0 10.535 11.927l280-200a8 8 0 0 0 .262-12.825l-66.314-51.578 114.093-183.5a8 8 0 0 0 -1.82-10.492z" fill="url(#linear-gradient-3)"/></svg>