<?xml version="1.0" encoding="UTF-8"?>
<svg xmlns="http://www.w3.org/2000/svg" xmlns:xlink="http://www.w3.org/1999/xlink" viewBox="0 0 64 64" width="64px" height="64px">
<defs>
<linearGradient id="linear0" gradientUnits="userSpaceOnUse" x1="51.0625" y1="66.805878" x2="51.0625" y2="131.797684" gradientTransform="matrix(0.372093,0,0,0.372093,0,0)">
<stop offset="0" style="stop-color:rgb(98.431373%,71.764708%,69.803923%);stop-opacity:1;"/>
<stop offset="1" style="stop-color:rgb(86.666667%,43.137255%,43.137255%);stop-opacity:1;"/>
</linearGradient>
<linearGradient id="linear1" gradientUnits="userSpaceOnUse" x1="52.08913" y1="41.44931" x2="52.08913" y2="62.728939" gradientTransform="matrix(0.372093,0,0,0.372093,0,0)">
<stop offset="0" style="stop-color:rgb(98.431373%,71.764708%,69.803923%);stop-opacity:1;"/>
<stop offset="1" style="stop-color:rgb(86.666667%,43.137255%,43.137255%);stop-opacity:1;"/>
</linearGradient>
<linearGradient id="linear2" gradientUnits="userSpaceOnUse" x1="100.474876" y1="37.960941" x2="100.474876" y2="133.098434" gradientTransform="matrix(0.372093,0,0,0.372093,0,0)">
<stop offset="0" style="stop-color:rgb(98.431373%,71.764708%,69.803923%);stop-opacity:1;"/>
<stop offset="1" style="stop-color:rgb(86.666667%,43.137255%,43.137255%);stop-opacity:1;"/>
</linearGradient>
<linearGradient id="linear3" gradientUnits="userSpaceOnUse" x1="86" y1="17.46875" x2="86" y2="154.53125" gradientTransform="matrix(0.372093,0,0,0.372093,0,0)">
<stop offset="0" style="stop-color:rgb(96.078432%,32.941177%,28.235295%);stop-opacity:1;"/>
<stop offset="1" style="stop-color:rgb(69.411767%,16.470589%,16.470589%);stop-opacity:1;"/>
</linearGradient>
</defs>
<g id="surface72394685">
<path style=" stroke:none;fill-rule:evenodd;fill:url(#linear0);" d="M 22 48 L 22 26 L 16 26 L 16 48 Z M 22 48 "/>
<path style=" stroke:none;fill-rule:evenodd;fill:url(#linear1);" d="M 19.359375 23 C 21.871094 23 23.433594 21.527344 23.433594 19.445312 C 23.386719 17.320312 21.871094 15.796875 19.40625 15.796875 C 16.941406 15.796875 15.328125 17.273438 15.328125 19.398438 C 15.328125 21.476562 16.894531 23 19.3125 23 Z M 19.359375 23 "/>
<path style=" stroke:none;fill-rule:evenodd;fill:url(#linear2);" d="M 26.945312 48 L 34 48 L 34 35.910156 C 34 35.261719 34.121094 34.617188 34.3125 34.152344 C 34.832031 32.859375 36.191406 31.519531 38.179688 31.519531 C 40.785156 31.519531 42 33.507812 42 36.417969 L 42 48 L 48 48 L 48 35.589844 C 48 28.929688 44.914062 26.089844 40.175781 26.089844 C 36.289062 26.089844 35.050781 28 34.101562 30 L 34 30 L 34 26 L 26.945312 26 C 27.039062 28 26.769531 48 26.769531 48 Z M 26.945312 48 "/>
<path style=" stroke:none;fill-rule:nonzero;fill:url(#linear3);" d="M 50 57 L 14 57 C 10.140625 57 7 53.859375 7 50 L 7 14 C 7 10.140625 10.140625 7 14 7 L 50 7 C 53.859375 7 57 10.140625 57 14 L 57 50 C 57 53.859375 53.859375 57 50 57 Z M 14 9 C 11.242188 9 9 11.242188 9 14 L 9 50 C 9 52.757812 11.242188 55 14 55 L 50 55 C 52.757812 55 55 52.757812 55 50 L 55 14 C 55 11.242188 52.757812 9 50 9 Z M 14 9 "/>
</g>
</svg>
