<svg id="Capa_1" enable-background="new 0 0 512 512" height="512" viewBox="0 0 512 512" width="512" xmlns="http://www.w3.org/2000/svg"><g><g fill="#ffdf40"><path d="m167 32h30v64h-30z"/><path d="m34 166h63v30h-63z"/><path d="m92.769 77.246h30v60h-30z" transform="matrix(.707 -.707 .707 .707 -44.27 107.615)"/></g><path d="m415 314h64v30h-64z" fill="#ffbe40"/><path d="m315 414h30v64h-30z" fill="#ffbe40"/><path d="m389.754 374.231h30v60h-30z" fill="#ffbe40" transform="matrix(.707 -.707 .707 .707 -167.285 404.597)"/><path d="m476.839 204.867-83.266 82.64-36.274-6.153-6.153-36.274 83.266-82.64c23.335-23.335 23.334-61.519 0-84.853s-61.518-23.335-84.853 0l-83.266 82.64-36.911-5.516-5.516-36.911 83.266-82.64c46.882-46.882 122.824-46.882 169.706 0s46.882 122.825.001 169.707z" fill="#ff5959"/><path d="m476.839 204.867-83.266 82.64-36.274-6.153-6.153-36.274 83.266-82.64c23.335-23.335 23.334-61.519 0-84.853l42.426-42.426c46.882 46.882 46.882 122.824.001 169.706z" fill="#e63a57"/><path d="m321.146 257.506h60v60h-60z" fill="#d8e0f0" transform="matrix(.707 -.707 .707 .707 -100.45 332.507)"/><path d="m193.867 130.227h60v60h-60z" fill="#f3f5f9" transform="matrix(.707 -.707 .707 .707 -47.729 205.227)"/><path d="m204.867 476.839 82.64-83.266-6.153-36.274-36.274-6.153-82.64 83.266c-23.335 23.335-61.519 23.334-84.853 0s-23.335-61.518 0-84.853l82.64-83.266-5.516-36.911-36.911-5.516-82.64 83.266c-46.882 46.882-46.882 122.824 0 169.706s122.825 46.882 169.707.001z" fill="#ff5959"/><path d="m204.867 476.839 82.64-83.266-6.153-36.274-36.274-6.153-82.64 83.266c-23.335 23.335-61.519 23.334-84.853 0l-42.426 42.426c46.882 46.882 122.824 46.882 169.706.001z" fill="#e63a57"/><path d="m257.506 321.146h60v60h-60z" fill="#d8e0f0" transform="matrix(.707 -.707 .707 .707 -164.089 306.146)"/><path d="m130.227 193.867h60v60h-60z" fill="#f3f5f9" transform="matrix(.707 -.707 .707 .707 -111.368 178.867)"/></g></svg>