<svg width="152" height="64" viewBox="0 0 152 64" fill="none" xmlns="http://www.w3.org/2000/svg">
<path d="M54.2529 8.03881C53.0056 11.4981 51.8312 15.0094 50.7298 18.5728C49.6284 22.1361 48.6626 25.9494 47.8324 30.0125C47.0022 34.0548 46.3389 38.4303 45.8425 43.1391C45.3462 47.8269 45.0898 53.0251 45.0733 58.7334C44.8235 58.9003 44.4486 59.1193 43.9488 59.3905C43.4699 59.6826 42.9285 59.9851 42.3245 60.298C41.7415 60.6318 41.1271 60.9656 40.4816 61.2995C39.836 61.6333 39.2112 61.9567 38.6073 62.2697C38.0242 62.5826 37.4932 62.8643 37.0142 63.1146C36.5352 63.365 36.1708 63.5528 35.9209 63.678C35.9405 62.1155 36.0434 60.3966 36.2294 58.5215C36.4155 56.6463 36.6639 54.667 36.9748 52.5834C37.3066 50.5207 37.6799 48.3745 38.0949 46.145C38.5306 43.9155 38.9976 41.6652 39.4959 39.394C37.9975 41.416 36.5613 43.1046 35.1873 44.4598C33.8342 45.7942 32.6267 46.868 31.5648 47.6813C30.3364 48.6406 29.1911 49.4019 28.1291 49.9652C27.6917 50.2156 27.1605 50.2368 26.5353 50.029C25.9102 49.8211 25.2849 49.5091 24.6596 49.0929C24.0551 48.6767 23.4923 48.2188 22.9711 47.7192C22.4707 47.2196 22.1162 46.8032 21.9076 46.47C21.699 46.1369 21.4691 45.1891 21.2179 43.6268C20.9875 42.0645 20.8191 39.825 20.7127 36.9085C19.8178 38.0758 18.85 39.3057 17.8093 40.5982C16.7686 41.8907 15.7071 43.1832 14.6248 44.4757C13.5633 45.7473 12.5122 46.9877 11.4714 48.1969C10.4307 49.3852 9.46278 50.4797 8.56771 51.4803C7.6518 52.4602 6.83996 53.3046 6.13217 54.0135C5.40357 54.7432 4.84147 55.2645 4.44588 55.5773C4.23737 55.3483 3.98717 55.088 3.69527 54.7966C3.38255 54.5052 3.06981 54.1929 2.75705 53.8598C2.42348 53.5476 2.10031 53.2249 1.78755 52.8918C1.47481 52.5796 1.20374 52.2777 0.974353 51.9862C4.01396 49.3172 7.09439 45.5544 10.2156 40.6978C13.3369 35.8204 16.3115 29.9535 19.1396 23.0972C19.4523 23.3678 19.7441 23.628 20.0152 23.8777C20.2862 24.1275 20.5468 24.3773 20.797 24.6271C20.9611 21.3353 21.2083 17.6893 21.5385 13.6891C21.8896 9.66796 22.3862 5.20924 23.0282 0.312914C23.1324 0.3545 23.3721 0.552232 23.7474 0.906109C24.1435 1.25997 24.6022 1.70753 25.1235 2.2488C25.6447 2.76923 26.1972 3.34172 26.781 3.96627C27.3648 4.56998 27.9174 5.15289 28.4386 5.71499C28.9807 6.27707 29.4499 6.77671 29.846 7.2139C30.2422 7.6511 30.5133 7.95297 30.6592 8.11952C30.6177 8.28622 30.5243 8.73421 30.379 9.46349C30.2338 10.1928 30.0574 11.1304 29.85 12.2764C29.6633 13.4224 29.456 14.735 29.228 16.2144C29 17.6937 28.7928 19.2668 28.6066 20.9336C28.4204 22.5796 28.2551 24.2881 28.1106 26.059C27.9869 27.8091 27.9154 29.5279 27.8958 31.2154C27.8755 31.9238 27.8553 32.7467 27.8352 33.6842C27.8359 34.6009 27.8367 35.5488 27.8374 36.528C27.8382 37.5071 27.8493 38.4759 27.8709 39.4342C27.9133 40.3717 27.9661 41.2258 28.0291 41.9966C28.0922 42.7465 28.176 43.3715 28.2806 43.8714C28.406 44.3504 28.5624 44.6107 28.7499 44.6523C28.9792 44.7146 29.531 44.4121 30.4055 43.7447C31.28 43.0774 32.3313 42.0974 33.5595 40.8048C34.7876 39.5122 36.1198 37.9486 37.5559 36.1142C39.0128 34.2589 40.4174 32.1849 41.7698 29.8922C42.3929 27.4542 43.0161 25.0996 43.6394 22.8283C44.2834 20.5569 44.8964 18.4523 45.4782 16.5143C46.0809 14.5764 46.6421 12.8468 47.1617 11.3255C47.6814 9.78346 48.1491 8.52269 48.5651 7.5432C48.9817 7.56371 49.4505 7.5946 49.9714 7.63586C50.5131 7.65628 51.0548 7.69753 51.5965 7.75961C52.1382 7.80086 52.6382 7.85255 53.0966 7.9147C53.5758 7.956 53.9612 7.99736 54.2529 8.03881ZM56.597 48.9433C56.5975 49.5683 56.8269 49.8806 57.2852 49.8802C57.7644 49.8799 58.3995 49.5044 59.1906 48.7538C59.9817 47.9823 60.8039 47.0129 61.6571 45.8456C61.6153 45.6165 61.5839 45.4186 61.5629 45.2519C61.5628 45.0644 61.5626 44.8978 61.5625 44.7519C61.5622 44.3353 61.6035 43.8456 61.6864 43.2831C61.7901 42.6997 62.0292 42.0432 62.4036 41.3138C62.6532 40.7511 62.9549 40.1988 63.3086 39.6568C63.5999 39.1774 63.9537 38.6667 64.3699 38.1248C64.7862 37.5619 65.2441 37.0407 65.7437 36.5612L65.9311 36.3735C66.1396 36.6234 66.4107 36.9669 66.7444 37.4042C67.0989 37.8206 67.4429 38.2578 67.7766 38.7159C68.1311 39.1531 68.4335 39.5591 68.6838 39.9339C68.9549 40.3087 69.1218 40.569 69.1844 40.7148C69.1851 41.6106 69.0191 42.5066 68.6865 43.4027C68.3747 44.2987 67.9483 45.1845 67.4073 46.0599C68.6572 45.9756 69.8132 45.6622 70.8753 45.1197C71.9582 44.5564 73.0825 43.6493 74.2482 42.3984C74.4359 42.5857 74.6757 42.846 74.9676 43.1791C75.2803 43.4913 75.5305 43.762 75.7182 43.991C74.8439 44.9083 73.9799 45.6694 73.1262 46.2742C72.2933 46.8791 71.45 47.3589 70.5961 47.7137C69.763 48.0685 68.909 48.3296 68.0342 48.4969C67.1593 48.6434 66.2635 48.717 65.3468 48.7178C64.6391 49.4683 63.8792 50.1564 63.0672 50.782C62.2552 51.4076 61.4223 51.95 60.5684 52.4089C59.7355 52.8679 58.9024 53.2227 58.0693 53.4734C57.2361 53.724 56.4446 53.8496 55.6946 53.8502C55.0696 53.8507 54.4236 53.6637 53.7566 53.2892C53.0897 52.9147 52.4851 52.4569 51.9431 51.9156C51.401 51.3535 50.9526 50.7601 50.5979 50.1354C50.2433 49.5107 50.0658 48.9587 50.0654 48.4796C50.0642 46.8962 50.2817 45.3231 50.718 43.7603C51.1335 42.1975 51.799 40.7386 52.7146 39.3838C53.6094 38.0081 54.7543 36.7988 56.1493 35.7561C57.5652 34.7133 59.2417 33.9204 61.1788 33.3772C61.2412 33.3355 61.3454 33.3042 61.4912 33.2832C61.6578 33.2623 61.7932 33.2517 61.8974 33.2517C62.1891 33.2514 62.4912 33.3658 62.8039 33.5947C63.1374 33.8028 63.4397 34.0421 63.7107 34.3128C64.0026 34.5834 64.2424 34.854 64.4301 35.1247C64.6178 35.3746 64.7117 35.5412 64.7117 35.6245C64.6702 35.7287 64.514 35.8642 64.2433 36.0311C63.9726 36.1771 63.6082 36.4378 63.1502 36.8132C62.6921 37.1885 62.1509 37.7306 61.5264 38.4394C60.9019 39.1274 60.2152 40.0446 59.466 41.191C58.3423 42.8794 57.5831 44.4112 57.1883 45.7866C56.7935 47.141 56.5964 48.1933 56.597 48.9433ZM88.4095 48.8562C87.5345 48.8569 86.7739 48.7116 86.1279 48.4205C85.4409 49.1502 84.7227 49.8382 83.9732 50.4846C83.2237 51.1102 82.4845 51.6629 81.7557 52.1426C81.027 52.6431 80.3085 53.0395 79.6004 53.3317C78.8923 53.624 78.2258 53.7911 77.6008 53.8333C77.2883 53.8335 76.8299 53.6985 76.2255 53.4281C75.6419 53.1577 75.0688 52.804 74.5059 52.3669C73.9223 51.9507 73.4219 51.4719 73.0048 50.9306C72.5669 50.3684 72.3477 49.8061 72.3473 49.2436C72.3462 47.8686 72.4805 46.4935 72.7503 45.1183C73.0201 43.7222 73.3628 42.347 73.7784 40.9925C74.1732 39.638 74.6201 38.3148 75.1191 37.0227C75.5972 35.7098 76.0546 34.4491 76.4912 33.2404C77.554 33.7187 78.5857 34.2492 79.5861 34.8318C80.6074 35.4143 81.5559 36.1011 82.4315 36.8921C82.1195 37.5173 81.8075 38.2363 81.4956 39.049C81.1838 39.8618 80.8823 40.7058 80.5913 41.581C80.3004 42.4562 80.0302 43.3314 79.7809 44.2066C79.5315 45.0818 79.3134 45.8945 79.1265 46.6446C78.9396 47.3948 78.7943 48.0615 78.6905 48.6449C78.5868 49.2075 78.535 49.6138 78.5352 49.8638C78.5354 50.0305 78.5667 50.1867 78.6293 50.3325C78.7128 50.4574 78.8378 50.5198 79.0045 50.5197C79.3378 50.5194 79.7023 50.415 80.098 50.2064C80.5145 49.9977 80.9518 49.7265 81.4099 49.3928C81.8679 49.0383 82.326 48.6317 82.7839 48.173C83.2627 47.6935 83.7207 47.1931 84.1578 46.672C83.7823 46.0264 83.5943 45.3807 83.5938 44.7349C83.5934 44.2974 83.6555 43.7765 83.7801 43.1723C83.9254 42.5472 84.1124 41.9012 84.3411 41.2343C84.5697 40.5675 84.8192 39.9006 85.0895 39.2338C85.3807 38.546 85.6718 37.9104 85.9631 37.3268C86.2751 36.7433 86.5664 36.2326 86.8369 35.7949C87.1282 35.3572 87.3884 35.0341 87.6174 34.8256C88.0967 35.0127 88.5969 35.2727 89.118 35.6056C89.6391 35.9177 90.1185 36.2611 90.5563 36.6358C90.9941 36.9896 91.3485 37.3435 91.6196 37.6975C91.9115 38.0306 92.0784 38.3117 92.1202 38.5408C92.1206 38.9783 92.0168 39.4888 91.8089 40.0723C91.601 40.6558 91.3099 41.2915 90.9354 41.9792C90.5818 42.6462 90.1448 43.3549 89.6245 44.1053C89.1251 44.8348 88.5736 45.5748 87.97 46.3253C88.095 46.3669 88.2201 46.4084 88.3451 46.45C88.491 46.4707 88.6576 46.481 88.8451 46.4809C89.6785 46.4802 90.418 46.3963 91.0637 46.2291C91.7094 46.062 92.3238 45.8219 92.9069 45.509C93.49 45.1752 94.0626 44.7685 94.6247 44.2889C95.1868 43.8093 95.801 43.2567 96.4672 42.6312C96.6548 42.8186 96.8946 43.0684 97.1865 43.3807C97.4992 43.6721 97.7494 43.9323 97.9371 44.1613C97.0628 45.037 96.23 45.7772 95.4388 46.382C94.6684 46.9659 93.898 47.4457 93.1274 47.8213C92.3777 48.176 91.6175 48.4371 90.8468 48.6043C90.0761 48.7716 89.2636 48.8555 88.4095 48.8562ZM98.1633 53.8174C97.8508 53.8177 97.4549 53.7034 96.9755 53.4746C96.4962 53.2666 96.0377 52.9961 95.5999 52.6631C95.1622 52.351 94.7869 51.9971 94.4741 51.6015C94.1613 51.2059 94.0047 50.8206 94.0044 50.4456C94.2121 49.5288 94.4925 48.4765 94.8458 47.2887C95.199 46.101 95.5835 44.8923 95.9992 43.6628C96.3941 42.4334 96.8202 41.2351 97.2777 40.0681C97.7143 38.8803 98.1093 37.8279 98.4627 36.9109C98.837 35.994 99.1594 35.2541 99.4298 34.6914C99.7002 34.1287 99.877 33.8473 99.9604 33.8473C100.085 33.8472 100.398 33.9824 100.898 34.2528C101.398 34.5232 101.919 34.8562 102.461 35.2516C103.024 35.6262 103.525 36.032 103.962 36.4692C104.4 36.8855 104.619 37.2499 104.619 37.5624C104.62 37.6249 104.609 37.7083 104.588 37.8124C104.568 37.8958 104.537 38.0104 104.495 38.1563C104.329 38.6772 104.11 39.292 103.84 40.0005C103.591 40.7091 103.32 41.4488 103.029 42.2199C102.738 42.9701 102.447 43.7308 102.156 44.5018C101.865 45.2521 101.605 45.9606 101.376 46.6274C101.148 47.2943 100.961 47.8778 100.815 48.3779C100.67 48.878 100.597 49.2426 100.597 49.4718C100.598 49.5968 100.66 49.6592 100.785 49.6591C101.014 49.659 101.358 49.5233 101.816 49.2521C102.274 48.9809 102.795 48.6263 103.378 48.1884C103.982 47.7504 104.606 47.2708 105.252 46.7494C105.897 46.2281 106.511 45.7172 107.094 45.2168C107.698 44.6955 108.239 44.2263 108.718 43.8093C109.197 43.3922 109.561 43.0794 109.811 42.8709C109.999 43.0583 110.218 43.2977 110.468 43.5892C110.739 43.8806 110.989 44.1513 111.219 44.4011C110.761 44.8598 110.188 45.4227 109.501 46.0899C108.814 46.7363 108.065 47.4035 107.253 48.0916C106.461 48.7798 105.629 49.4679 104.754 50.1561C103.901 50.8442 103.068 51.4595 102.256 52.0018C101.444 52.544 100.683 52.9821 99.9754 53.316C99.2673 53.6499 98.6633 53.817 98.1633 53.8174ZM110.516 24.3079C110.495 24.3912 110.412 24.5996 110.266 24.9331C110.141 25.2457 109.985 25.6208 109.798 26.0584C109.611 26.4752 109.393 26.9233 109.143 27.4027C108.914 27.8612 108.685 28.2884 108.456 28.6845C108.228 29.0805 108.009 29.414 107.801 29.685C107.593 29.9351 107.426 30.0603 107.301 30.0604C106.926 30.0398 106.468 29.9256 105.926 29.7177C105.405 29.5097 104.894 29.281 104.394 29.0313C103.915 28.7609 103.498 28.5008 103.144 28.2511C102.81 28.0013 102.643 27.8244 102.643 27.7202C102.643 27.2827 102.767 26.7201 103.017 26.0324C103.266 25.3239 103.557 24.6466 103.89 24.0005C104.223 23.3336 104.556 22.7604 104.889 22.281C105.243 21.8015 105.513 21.5617 105.701 21.5616C106.076 21.5613 106.534 21.6859 107.076 21.9355C107.618 22.1643 108.139 22.4347 108.639 22.7468C109.16 23.0589 109.598 23.3711 109.953 23.6833C110.328 23.9747 110.515 24.1829 110.516 24.3079ZM131.187 44.3857C129.272 46.2621 127.461 47.8365 125.753 49.1086C124.067 50.3807 122.453 51.4028 120.912 52.1748C119.371 52.9469 117.892 53.5001 116.476 53.8345C115.08 54.1689 113.716 54.3367 112.382 54.3377C111.82 54.3381 111.195 54.1303 110.507 53.7141C109.819 53.298 109.183 52.7881 108.6 52.1844C107.995 51.6015 107.494 50.9873 107.098 50.3418C106.702 49.6962 106.503 49.1443 106.503 48.686C106.502 46.9776 106.74 45.415 107.218 43.9979C107.675 42.5601 108.289 41.2679 109.059 40.1215C109.829 38.9751 110.703 37.964 111.682 37.0882C112.681 36.2124 113.712 35.4825 114.774 34.8983C115.857 34.3142 116.929 33.8758 117.991 33.5833C119.054 33.2909 120.033 33.1443 120.929 33.1436C121.574 33.1431 122.21 33.3301 122.835 33.7046C123.481 34.0791 124.065 34.537 124.586 35.0783C125.108 35.6195 125.525 36.1921 125.838 36.796C126.171 37.3791 126.339 37.8894 126.339 38.3269C126.339 39.0352 126.038 39.7646 125.434 40.5151C124.852 41.2447 124.019 41.9954 122.936 42.767C121.853 43.5387 120.552 44.3314 119.032 45.145C117.511 45.9379 115.835 46.7413 114.002 47.5552C113.94 48.0552 113.909 48.5448 113.91 49.024C113.91 49.6698 114.046 50.1072 114.317 50.3362C114.609 50.5651 115.14 50.6793 115.911 50.6787C117.286 50.6776 118.577 50.4475 119.785 49.9882C121.014 49.5289 122.191 48.9343 123.315 48.2042C124.44 47.4742 125.522 46.64 126.563 45.7017C127.604 44.7634 128.635 43.8147 129.655 42.8556L131.187 44.3857ZM120.181 36.5817C119.765 36.582 119.306 36.8115 118.807 37.2702C118.307 37.7081 117.808 38.2918 117.308 39.0214C116.809 39.7509 116.33 40.5951 115.873 41.5537C115.415 42.4916 115.02 43.4711 114.687 44.4922C115.458 43.9916 116.207 43.4597 116.936 42.8967C117.686 42.3336 118.352 41.7497 118.935 41.1451C119.518 40.5197 119.986 39.8839 120.34 39.2378C120.693 38.5917 120.87 37.9457 120.869 37.2999C120.869 37.1124 120.807 36.9458 120.681 36.8C120.577 36.6543 120.41 36.5815 120.181 36.5817ZM129.093 43.4498C129.572 42.9911 130.123 42.4698 130.748 41.886C131.352 41.3022 131.955 40.6663 132.559 39.9784C133.183 39.2904 133.756 38.5503 134.276 37.7583C134.817 36.9662 135.243 36.1117 135.555 35.1948C135.638 34.7156 135.763 34.2155 135.929 33.6945C136.116 33.1527 136.314 32.663 136.522 32.2253C136.75 31.7876 136.969 31.4229 137.177 31.131C137.385 30.8392 137.573 30.6932 137.739 30.6931C137.989 30.8387 138.365 31.1197 138.865 31.536C139.365 31.9314 139.865 32.3581 140.366 32.8161C140.866 33.274 141.304 33.7008 141.679 34.0963C142.075 34.471 142.274 34.7 142.274 34.7833C142.024 35.7419 141.9 36.6066 141.901 37.3774C141.922 38.1482 141.985 38.9086 142.09 39.6585C142.215 40.4084 142.341 41.2104 142.467 42.0645C142.613 42.8977 142.687 43.8664 142.688 44.9705C142.688 45.6372 142.574 46.4081 142.346 47.2833C142.138 48.1376 141.764 48.9087 141.223 49.5967C142.285 48.9708 143.336 48.2721 144.377 47.5005C145.418 46.708 146.345 45.9677 147.157 45.2796C148.114 44.4663 149.03 43.6531 149.905 42.84L151.312 44.3701C150.625 45.0165 149.876 45.7046 149.064 46.4344C148.273 47.1641 147.44 47.8835 146.566 48.5925C145.712 49.3015 144.837 49.9793 143.942 50.6258C143.047 51.2723 142.162 51.8459 141.287 52.3466C140.413 52.8473 139.569 53.2438 138.757 53.5361C137.945 53.8284 137.184 53.9748 136.476 53.9753C135.872 53.9758 135.205 53.8305 134.476 53.5394C133.746 53.2483 133.058 52.8946 132.412 52.4785C131.766 52.0623 131.203 51.6252 130.724 51.1673C130.244 50.7093 129.963 50.3241 129.879 50.0117C129.879 49.97 129.921 49.8866 130.004 49.7616C130.087 49.6157 130.191 49.4698 130.316 49.3238C130.42 49.1779 130.535 49.0528 130.66 48.9486C130.764 48.8235 130.847 48.7609 130.909 48.7609C131.034 48.7608 131.284 48.8543 131.66 49.0415C132.035 49.2288 132.66 49.322 133.535 49.3214C134.014 49.321 134.42 49.1957 134.753 48.9454C135.107 48.6951 135.399 48.3616 135.628 47.9447C135.856 47.5279 136.023 47.0486 136.126 46.5068C136.23 45.9651 136.282 45.3921 136.281 44.788C136.281 43.913 136.238 43.0693 136.154 42.2568C136.07 41.4236 135.976 40.6215 135.871 39.8508C135.517 40.2677 135.112 40.7055 134.654 41.1642C134.196 41.6229 133.727 42.0816 133.248 42.5403C132.79 42.9782 132.322 43.416 131.843 43.8539C131.385 44.2709 130.969 44.6462 130.594 44.9799L129.093 43.4498Z" fill="white"/>
</svg>
