<?xml version="1.0"?>
<svg xmlns="http://www.w3.org/2000/svg" xmlns:xlink="http://www.w3.org/1999/xlink" xmlns:svgjs="http://svgjs.com/svgjs" version="1.1" width="512" height="512" x="0" y="0" viewBox="0 0 512 512" style="enable-background:new 0 0 512 512" xml:space="preserve" class=""><g transform="matrix(2.755455298081243e-16,-0.9000000000000985,0.8999999999999014,2.755455298081847e-16,25.5999862671151,486.4000152588142)"><g xmlns="http://www.w3.org/2000/svg"><g><path d="m13.217 498.794c-8.524-8.523-13.217-19.855-13.217-31.908s4.693-23.385 13.217-31.908l329.861-329.861c5.857-5.858 15.355-5.857 21.213 0l42.604 42.603c2.813 2.813 4.394 6.628 4.394 10.606s-1.58 7.793-4.394 10.606l-329.862 329.862c-8.797 8.797-20.353 13.195-31.908 13.195s-23.111-4.398-31.908-13.195z" fill="#464b52" data-original="#464b52" style="" class=""/></g><path d="m406.895 147.72c2.813 2.813 4.394 6.628 4.394 10.606s-1.58 7.793-4.394 10.606l-329.862 329.862c-8.797 8.797-20.353 13.195-31.908 13.195s-23.111-4.398-31.908-13.195l372.376-372.376z" fill="#292b2f" data-original="#292b2f" style=""/><circle cx="316.25" cy="195.761" fill="#76cefb" r="195.75" data-original="#76cefb" style="" class=""/><path d="m454.601 57.409c35.446 35.446 57.399 84.383 57.399 138.352 0 107.937-87.813 195.75-195.75 195.75-53.968 0-102.906-21.953-138.351-57.399z" fill="#6897f4" data-original="#6897f4" style="" class=""/><circle cx="316.25" cy="195.761" fill="#e1faff" r="135.5" data-original="#e1faff" style=""/><path d="m316.25 331.261c-37.357 0-71.232-15.196-95.768-39.732l191.536-191.536c24.536 24.536 39.732 58.411 39.732 95.768 0 74.715-60.785 135.5-135.5 135.5z" fill="#c7f5ff" data-original="#c7f5ff" style="" class=""/></g></g></svg>
