<svg width="133" height="55" viewBox="0 0 133 55" fill="none" xmlns="http://www.w3.org/2000/svg">
<path d="M45.1297 7.34909C45.1506 7.39074 45.1923 7.49487 45.255 7.66149C45.3176 7.80727 45.3802 7.98431 45.4429 8.19259C45.5055 8.38005 45.5578 8.57792 45.5996 8.78622C45.6622 8.97367 45.6936 9.10907 45.6936 9.1924C45.6942 9.90073 45.549 10.755 45.2581 11.7552C44.9672 12.7346 44.5618 13.7766 44.0418 14.8812C43.5426 15.9857 42.9498 17.1112 42.2631 18.2576C41.5765 19.4039 40.8482 20.4982 40.0782 21.5405C39.3081 22.5619 38.5068 23.5 37.6741 24.3548C36.8622 25.1888 36.0607 25.8561 35.2694 26.3567C34.9775 26.0861 34.6231 25.7635 34.2061 25.3888C33.81 25.0141 33.3826 24.6186 32.924 24.2023C32.4653 23.7651 32.0066 23.328 31.548 22.8908C31.0893 22.4537 30.6619 22.0269 30.2657 21.6106C30.8695 21.1309 31.5461 20.5054 32.2955 19.734C33.0658 18.9417 33.8359 18.0661 34.606 17.1072C35.3969 16.1483 36.167 15.1581 36.9162 14.1367C37.6654 13.1153 38.3105 12.1356 38.8514 11.1977C39.4132 10.2389 39.85 9.374 40.1619 8.60292C40.4738 7.83185 40.588 7.21718 40.5043 6.75891C40.4416 6.52979 40.3373 6.37362 40.1914 6.2904C40.0663 6.18633 39.8267 6.13443 39.4725 6.1347C38.2017 6.13568 36.7331 6.38682 35.0669 6.88811C33.4006 7.38939 31.6616 8.1199 29.8498 9.07963C28.038 10.0185 26.2056 11.1762 24.3525 12.5526C22.5202 13.929 20.7922 15.4825 19.1686 17.2129C17.5657 18.9433 16.1297 20.8402 14.8605 22.9037C13.6121 24.9672 12.6554 27.1658 11.9906 29.4997C13.4489 29.4777 14.8343 29.4246 16.1467 29.3402C17.4591 29.235 18.709 29.1299 19.8964 29.0248C21.0839 28.9197 22.2192 28.8251 23.3025 28.7409C24.3857 28.6568 25.4378 28.6143 26.4586 28.6135C27.0003 28.6131 27.5839 28.9043 28.2093 29.4872C28.8348 30.07 29.4186 30.7675 29.9609 31.5796C30.5032 32.3916 30.9518 33.2246 31.3066 34.0785C31.6614 34.9324 31.839 35.6198 31.8394 36.1406C31.8406 37.6198 31.4563 39.1097 30.6866 40.6102C29.9378 42.09 28.9181 43.5283 27.6275 44.9251C26.3577 46.3011 24.8795 47.5939 23.193 48.8035C21.5064 49.9923 19.7259 51.025 17.8516 51.9014C15.9981 52.7987 14.1028 53.4981 12.1657 53.9996C10.2286 54.5219 8.38509 54.7837 6.63509 54.7851C6.40577 54.5977 6.10347 54.3063 5.72816 53.9108C5.35287 53.5361 4.94629 53.1093 4.50842 52.6305C4.0914 52.1725 3.65352 51.6832 3.19479 51.1627C2.75689 50.6422 2.35025 50.1425 1.97488 49.6637C1.57868 49.1848 1.23459 48.7476 0.942617 48.352C0.650645 47.9564 0.452495 47.6544 0.348167 47.4462C1.49413 47.612 2.86916 47.6526 4.47326 47.568C6.0982 47.4834 7.80635 47.2529 9.59773 46.8765C11.3891 46.5001 13.1908 45.9675 15.0027 45.2786C16.8355 44.5689 18.5432 43.6821 20.1257 42.6184C21.7082 41.5547 23.1031 40.2932 24.3103 38.8339C25.5175 37.3538 26.3911 35.6448 26.9313 33.7069C25.723 33.7287 24.6293 33.792 23.6502 33.8969C22.6711 33.981 21.7233 34.0859 20.8067 34.2116C19.8901 34.3165 18.9527 34.411 17.9944 34.495C17.0362 34.5791 15.9737 34.6216 14.807 34.6225C14.432 34.6228 14.0258 34.6231 13.5883 34.6234C13.1508 34.603 12.7132 34.572 12.2757 34.5307C11.8382 34.4685 11.4214 34.3751 11.0255 34.2504C10.6296 34.1257 10.3065 33.9489 10.0563 33.7199C9.49345 33.2412 8.9514 32.7416 8.43016 32.2212C7.90891 31.6799 7.43974 31.1386 7.02266 30.5973C6.60556 30.0351 6.27179 29.4728 6.02136 28.9105C5.77092 28.3482 5.6455 27.8067 5.6451 27.2858C5.64388 25.7025 6.03835 23.9418 6.82852 22.0037C7.61868 20.0447 8.71091 18.0751 10.1052 16.0949C11.5204 14.1146 13.1855 12.1967 15.1008 10.341C17.016 8.46454 19.098 6.79627 21.3469 5.3362C23.6166 3.87611 26.0011 2.7076 28.5005 1.83067C30.9998 0.953744 33.5307 0.51429 36.0932 0.512311C36.989 0.511619 37.8016 0.646409 38.531 0.916679C39.2812 1.18693 39.9586 1.54058 40.5631 1.97761C41.1676 2.41464 41.7096 2.90381 42.1892 3.4451C42.6688 3.96557 43.0963 4.47565 43.4716 4.97537C43.847 5.47508 44.1703 5.94358 44.4415 6.38087C44.7126 6.79732 44.942 7.12006 45.1297 7.34909ZM59.3748 41.4318C57.4596 43.3083 55.6483 44.8826 53.9409 46.1548C52.2544 47.4269 50.6406 48.449 49.0996 49.221C47.5585 49.9931 46.0797 50.5463 44.6633 50.8807C43.2678 51.2151 41.9033 51.3828 40.57 51.3839C40.0075 51.3843 39.3823 51.1765 38.6945 50.7603C38.0067 50.3442 37.3709 49.8343 36.7871 49.2305C36.1824 48.6477 35.682 48.0335 35.2856 47.3879C34.8893 46.7424 34.691 46.1905 34.6906 45.7322C34.6893 44.0238 34.9277 42.4611 35.4057 41.0441C35.863 39.6063 36.4765 38.3141 37.2465 37.1677C38.0164 36.0213 38.8907 35.0102 39.8692 34.1344C40.8685 33.2586 41.8992 32.5287 42.9612 31.9445C44.0441 31.3603 45.1167 30.922 46.1789 30.6295C47.2412 30.337 48.2203 30.1905 49.1161 30.1898C49.7619 30.1893 50.3975 30.3763 51.0228 30.7508C51.6689 31.1253 52.2526 31.5832 52.7739 32.1244C53.2951 32.6657 53.7122 33.2383 54.0252 33.8422C54.359 34.4253 54.526 34.9356 54.5264 35.3731C54.5269 36.0814 54.2254 36.8108 53.6218 37.5613C53.039 38.2909 52.2063 39.0415 51.1235 39.8132C50.0408 40.5849 48.7393 41.3776 47.2191 42.1912C45.6989 42.9841 44.0224 43.7875 42.1897 44.6014C42.1276 45.1014 42.0967 45.591 42.0971 46.0702C42.0976 46.716 42.2334 47.1534 42.5044 47.3824C42.7962 47.6113 43.3276 47.7255 44.0984 47.7249C45.4734 47.7238 46.7649 47.4937 47.9729 47.0344C49.2017 46.5751 50.3783 45.9805 51.5027 45.2504C52.6272 44.5204 53.7099 43.6862 54.7508 42.7479C55.7917 41.8096 56.8223 40.8609 57.8424 39.9018L59.3748 41.4318ZM48.3688 33.6278C47.9521 33.6282 47.4939 33.8577 46.9943 34.3164C46.4946 34.7543 45.9951 35.338 45.4956 36.0676C44.9962 36.7971 44.5177 37.6412 44.0601 38.5999C43.6025 39.5378 43.2074 40.5172 42.8749 41.5383C43.6453 41.0377 44.3949 40.5059 45.1236 39.9428C45.8732 39.3798 46.5394 38.7959 47.1223 38.1913C47.7051 37.5659 48.1734 36.9301 48.5271 36.284C48.8807 35.6379 49.0573 34.9919 49.0568 34.3461C49.0567 34.1586 48.994 33.9919 48.8689 33.8462C48.7647 33.7005 48.5979 33.6277 48.3688 33.6278ZM72.027 36.1721C71.7568 36.9848 71.4137 37.9121 70.9979 38.9541C70.6029 39.9961 70.2182 41.0172 69.844 42.0175C69.4698 43.0178 69.1476 43.9243 68.8773 44.737C68.628 45.5497 68.5034 46.1331 68.5037 46.4873C68.5038 46.6123 68.5663 46.6748 68.6913 46.6747C68.9205 46.6745 69.2642 46.5388 69.7223 46.2676C70.1804 45.9964 70.701 45.6419 71.284 45.2039C71.8878 44.7659 72.5124 44.2863 73.1578 43.765C73.8033 43.2436 74.4175 42.7327 75.0004 42.2323C75.6042 41.711 76.1455 41.2418 76.6243 40.8248C77.1032 40.4077 77.4675 40.095 77.7174 39.8864C77.905 40.0738 78.1239 40.3132 78.3742 40.6047C78.6452 40.8961 78.8954 41.1668 79.1248 41.4166C78.6668 41.8753 78.0943 42.4382 77.4073 43.1054C76.7203 43.7518 75.9709 44.419 75.1589 45.1072C74.3677 45.7953 73.5349 46.4834 72.6605 47.1716C71.8068 47.8597 70.9636 48.475 70.1307 49.0173C69.3186 49.5596 68.5585 49.9977 67.8504 50.3316C67.1423 50.6654 66.5487 50.8326 66.0696 50.8329C65.7571 50.8332 65.3611 50.7189 64.8818 50.4901C64.4025 50.2821 63.9439 50.0117 63.5062 49.6787C63.0684 49.3665 62.6931 49.0126 62.3803 48.617C62.0675 48.2214 61.911 47.8361 61.9107 47.4611C62.2221 46.0651 62.5337 44.8461 62.8454 43.8042C63.1571 42.7623 63.4481 41.8766 63.7183 41.1472C63.9886 40.397 64.2277 39.7927 64.4357 39.3342C64.6437 38.8757 64.7996 38.5318 64.9036 38.3026C64.6535 38.1986 64.4139 38.0842 64.1846 37.9594C63.9553 37.8346 63.7261 37.7097 63.4968 37.5849C63.1638 37.9393 62.7891 38.3146 62.3727 38.7108C61.9772 39.1069 61.5712 39.5031 61.1549 39.8992C60.7385 40.2954 60.3221 40.6811 59.9058 41.0564C59.4894 41.4318 59.1146 41.7758 58.7815 42.0886L57.2804 40.5585C57.8216 40.0372 58.4774 39.4117 59.2477 38.6819C59.9971 37.9314 60.7361 37.1808 61.4647 36.4302C60.9436 36.1181 60.4746 35.8268 60.0578 35.5563C59.6409 35.265 59.2865 35.0048 58.9947 34.7759C58.6403 34.5262 58.3276 34.2972 58.0566 34.0891C57.9316 34.0267 57.869 33.8913 57.8688 33.683C57.8686 33.4538 57.9621 33.1309 58.1493 32.714C58.3156 32.2764 58.534 31.8179 58.8045 31.3385C59.0749 30.8383 59.3662 30.3381 59.6783 29.8379C59.9904 29.3168 60.2922 28.8478 60.5835 28.4309C60.8748 28.014 61.1246 27.6805 61.3327 27.4303C61.5617 27.1593 61.7074 27.0238 61.7699 27.0237C61.8116 27.0237 61.947 27.0757 62.1763 27.1797C62.4264 27.2837 62.6869 27.4085 62.9578 27.5541C63.2288 27.6789 63.4789 27.8245 63.7082 27.991C63.9375 28.1575 64.0834 28.3032 64.146 28.4282C64.1669 28.5323 64.1879 28.751 64.209 29.0844C64.2301 29.4177 64.2512 29.8239 64.2724 30.3031C65.0853 30.7191 65.919 31.1976 66.7736 31.7386C67.6281 32.2588 68.4098 32.7582 69.1185 33.2368C69.9522 33.7778 70.7443 34.3293 71.4947 34.8912C71.7657 35.0577 71.9325 35.2659 71.9952 35.5158C72.0788 35.7658 72.0893 35.9845 72.027 36.1721ZM79.7258 50.8224C79.4133 50.8226 79.0174 50.7083 78.538 50.4796C78.0587 50.2716 77.6002 50.0011 77.1624 49.6681C76.7247 49.356 76.3494 49.0021 76.0366 48.6065C75.7238 48.2109 75.5672 47.8256 75.5669 47.4506C75.7746 46.5338 76.055 45.4815 76.4083 44.2937C76.7615 43.1059 77.146 41.8973 77.5617 40.6678C77.9566 39.4383 78.3827 38.2401 78.8402 37.0731C79.2768 35.8852 79.6718 34.8328 80.0252 33.9159C80.3995 32.9989 80.7219 32.2591 80.9923 31.6964C81.2627 31.1337 81.4395 30.8523 81.5229 30.8522C81.6479 30.8521 81.9605 30.9873 82.4607 31.2578C82.9609 31.5282 83.482 31.8611 84.024 32.2566C84.5868 32.6311 85.0871 33.037 85.5249 33.4742C85.9627 33.8905 86.1818 34.2549 86.182 34.5674C86.182 34.6299 86.1717 34.7132 86.1509 34.8174C86.1302 34.9008 86.099 35.0154 86.0575 35.1612C85.8912 35.6822 85.6729 36.297 85.4026 37.0055C85.1532 37.714 84.8829 38.4538 84.5918 39.2249C84.3008 39.9751 84.0097 40.7357 83.7186 41.5068C83.4275 42.257 83.1676 42.9656 82.939 43.6324C82.7103 44.2992 82.5233 44.8827 82.3778 45.3828C82.2324 45.8829 82.1598 46.2476 82.1599 46.4768C82.16 46.6018 82.2226 46.6642 82.3476 46.6641C82.5768 46.6639 82.9204 46.5283 83.3785 46.2571C83.8366 45.9859 84.3572 45.6313 84.9402 45.1934C85.544 44.7554 86.1687 44.2757 86.8141 43.7544C87.4595 43.2331 88.0737 42.7222 88.6567 42.2217C89.2604 41.7004 89.8017 41.2313 90.2806 40.8142C90.7594 40.3972 91.1238 40.0844 91.3736 39.8759C91.5612 40.0632 91.7802 40.3027 92.0304 40.5941C92.3015 40.8856 92.5517 41.1562 92.781 41.4061C92.3231 41.8647 91.7506 42.4277 91.0636 43.0949C90.3766 43.7412 89.6271 44.4085 88.8151 45.0966C88.024 45.7847 87.1912 46.4729 86.3167 47.161C85.4631 47.8492 84.6302 48.4644 83.8181 49.0067C83.0061 49.549 82.246 49.9871 81.5379 50.321C80.8298 50.6549 80.2258 50.822 79.7258 50.8224ZM92.078 21.3128C92.0572 21.3962 91.9741 21.6046 91.8285 21.938C91.7037 22.2506 91.5478 22.6257 91.3606 23.0634C91.1734 23.4802 90.955 23.9283 90.7054 24.4076C90.4766 24.8662 90.2478 25.2934 90.0189 25.6894C89.79 26.0854 89.5715 26.4189 89.3634 26.6899C89.1553 26.9401 88.9887 27.0652 88.8637 27.0653C88.4887 27.0448 88.0303 26.9305 87.4884 26.7226C86.9674 26.5147 86.4569 26.2859 85.9567 26.0363C85.4773 25.7659 85.0604 25.5058 84.7061 25.256C84.3725 25.0063 84.2057 24.8293 84.2056 24.7252C84.2053 24.2877 84.3299 23.7251 84.5793 23.0374C84.8288 22.3289 85.1199 21.6515 85.4528 21.0055C85.7856 20.3385 86.1185 19.7654 86.4514 19.2859C86.8052 18.8065 87.0759 18.5667 87.2634 18.5666C87.6384 18.5663 88.0968 18.6909 88.6387 18.9405C89.1805 19.1692 89.7016 19.4397 90.2018 19.7518C90.7229 20.0639 91.1606 20.376 91.515 20.6883C91.8903 20.9797 92.0779 21.1878 92.078 21.3128ZM112.75 41.3906C110.835 43.2671 109.023 44.8414 107.316 46.1136C105.629 47.3857 104.016 48.4078 102.475 49.1798C100.933 49.9518 99.4547 50.5051 98.0383 50.8395C96.6427 51.1739 95.2783 51.3416 93.945 51.3427C93.3825 51.3431 92.7573 51.1352 92.0695 50.7191C91.3817 50.303 90.7458 49.793 90.162 49.1893C89.5574 48.6065 89.0569 47.9923 88.6606 47.3467C88.2643 46.7012 88.0659 46.1493 88.0656 45.6909C88.0643 43.9826 88.3026 42.4199 88.7807 41.0029C89.2379 39.565 89.8515 38.2729 90.6215 37.1265C91.3914 35.98 92.2656 34.9689 93.2441 34.0932C94.2435 33.2174 95.2741 32.4875 96.3362 31.9033C97.4191 31.3191 98.4917 30.8808 99.5539 30.5883C100.616 30.2958 101.595 30.1492 102.491 30.1486C103.137 30.1481 103.772 30.3351 104.398 30.7096C105.044 31.0841 105.628 31.542 106.149 32.0832C106.67 32.6245 107.087 33.1971 107.4 33.801C107.734 34.3841 107.901 34.8944 107.901 35.3319C107.902 36.0402 107.6 36.7696 106.997 37.5201C106.414 38.2497 105.581 39.0003 104.499 39.772C103.416 40.5437 102.114 41.3363 100.594 42.15C99.0739 42.9429 97.3974 43.7462 95.5647 44.5602C95.5026 45.0602 95.4717 45.5498 95.4721 46.029C95.4726 46.6748 95.6084 47.1122 95.8794 47.3412C96.1712 47.5701 96.7025 47.6843 97.4734 47.6837C98.8484 47.6826 100.14 47.4525 101.348 46.9932C102.577 46.5339 103.753 45.9392 104.878 45.2092C106.002 44.4792 107.085 43.645 108.126 42.7067C109.167 41.7684 110.197 40.8197 111.217 39.8606L112.75 41.3906ZM101.744 33.5866C101.327 33.587 100.869 33.8165 100.369 34.2752C99.8696 34.7131 99.3701 35.2968 98.8706 36.0263C98.3712 36.7559 97.8927 37.6 97.4351 38.5587C96.9775 39.4966 96.5824 40.476 96.2499 41.4971C97.0203 40.9965 97.7699 40.4647 98.4986 39.9016C99.2482 39.3386 99.9144 38.7547 100.497 38.1501C101.08 37.5246 101.548 36.8889 101.902 36.2428C102.256 35.5967 102.432 34.9507 102.432 34.3048C102.432 34.1173 102.369 33.9507 102.244 33.805C102.14 33.6592 101.973 33.5865 101.744 33.5866ZM110.655 40.4548C111.134 39.996 111.686 39.4748 112.31 38.891C112.914 38.3072 113.518 37.6713 114.121 36.9833C114.746 36.2953 115.318 35.5553 115.838 34.7632C116.379 33.9712 116.806 33.1167 117.118 32.1998C117.201 31.7205 117.325 31.2204 117.492 30.6995C117.679 30.1577 117.876 29.6679 118.084 29.2303C118.313 28.7926 118.531 28.4278 118.74 28.136C118.948 27.8442 119.135 27.6982 119.302 27.6981C119.552 27.8437 119.927 28.1247 120.427 28.541C120.928 28.9364 121.428 29.3631 121.928 29.821C122.429 30.279 122.867 30.7057 123.242 31.1013C123.638 31.476 123.836 31.705 123.836 31.7883C123.587 32.7468 123.463 33.6115 123.463 34.3824C123.485 35.1532 123.548 35.9135 123.652 36.6635C123.778 37.4134 123.904 38.2154 124.029 39.0694C124.176 39.9026 124.249 40.8713 124.25 41.9755C124.251 42.6422 124.137 43.4131 123.908 44.2883C123.701 45.1426 123.326 45.9137 122.785 46.6016C123.847 45.9758 124.899 45.2771 125.94 44.5054C126.981 43.713 127.907 42.9727 128.719 42.2846C129.677 41.4713 130.593 40.6581 131.467 39.8449L132.875 41.3751C132.188 42.0215 131.438 42.7095 130.626 43.4393C129.835 44.1691 129.002 44.8885 128.128 45.5975C127.274 46.3065 126.4 46.9843 125.505 47.6308C124.609 48.2773 123.724 48.8509 122.85 49.3516C121.975 49.8523 121.132 50.2487 120.319 50.541C119.507 50.8333 118.747 50.9798 118.038 50.9803C117.434 50.9808 116.767 50.8355 116.038 50.5443C115.309 50.2532 114.621 49.8996 113.975 49.4834C113.329 49.0673 112.766 48.6302 112.286 48.1722C111.807 47.7143 111.525 47.3291 111.442 47.0166C111.442 46.975 111.483 46.8916 111.566 46.7665C111.65 46.6207 111.754 46.4747 111.879 46.3288C111.983 46.1829 112.097 46.0578 112.222 45.9535C112.326 45.8285 112.409 45.7659 112.472 45.7658C112.597 45.7658 112.847 45.8593 113.222 46.0465C113.597 46.2337 114.222 46.327 115.097 46.3263C115.577 46.326 115.983 46.2006 116.316 45.9504C116.67 45.7001 116.961 45.3665 117.19 44.9497C117.419 44.5329 117.585 44.0536 117.689 43.5118C117.793 42.9701 117.844 42.3971 117.844 41.793C117.843 40.918 117.801 40.0742 117.717 39.2618C117.633 38.4285 117.539 37.6265 117.434 36.8558C117.08 37.2727 116.674 37.7105 116.216 38.1692C115.758 38.6279 115.29 39.0866 114.811 39.5453C114.353 39.9831 113.884 40.421 113.406 40.8589C112.948 41.2759 112.531 41.6512 112.156 41.9848L110.655 40.4548Z" fill="white"/>
</svg>
