<svg id="Layer_1" data-name="Layer 1" xmlns="http://www.w3.org/2000/svg" xmlns:xlink="http://www.w3.org/1999/xlink" viewBox="0 0 502.15 502.03"><defs><style>.cls-1{fill:url(#New_Gradient_Swatch_1);}.cls-2{fill:url(#New_Gradient_Swatch_1-2);}.cls-3{fill:url(#New_Gradient_Swatch_1-3);}.cls-4{fill:url(#New_Gradient_Swatch_1-4);}.cls-5{fill:url(#New_Gradient_Swatch_1-5);}.cls-6{fill:url(#New_Gradient_Swatch_1-6);}.cls-7{fill:url(#New_Gradient_Swatch_1-7);}.cls-8{fill:url(#New_Gradient_Swatch_1-8);}.cls-9{fill:url(#New_Gradient_Swatch_1-9);}.cls-10{fill:url(#New_Gradient_Swatch_1-10);}.cls-11{fill:url(#New_Gradient_Swatch_1-11);}.cls-12{fill:url(#New_Gradient_Swatch_1-12);}.cls-13{fill:url(#New_Gradient_Swatch_1-13);}.cls-14{fill:url(#New_Gradient_Swatch_1-14);}.cls-15{fill:url(#New_Gradient_Swatch_1-15);}.cls-16{fill:url(#New_Gradient_Swatch_1-16);}.cls-17{fill:url(#New_Gradient_Swatch_1-17);}.cls-18{fill:url(#New_Gradient_Swatch_1-18);}.cls-19{fill:url(#New_Gradient_Swatch_1-19);}.cls-20{fill:url(#New_Gradient_Swatch_1-20);}.cls-21{fill:url(#New_Gradient_Swatch_1-21);}.cls-22{fill:url(#New_Gradient_Swatch_1-22);}.cls-23{fill:url(#New_Gradient_Swatch_1-23);}.cls-24{fill:url(#New_Gradient_Swatch_1-24);}.cls-25{fill:url(#New_Gradient_Swatch_1-25);}.cls-26{fill:url(#New_Gradient_Swatch_1-26);}</style><linearGradient id="New_Gradient_Swatch_1" x1="211.25" y1="483" x2="211.25" y2="122.06" gradientTransform="translate(0 -26)" gradientUnits="userSpaceOnUse"><stop offset="0" stop-color="#f7941e"/><stop offset="1" stop-color="#ee2a7b"/></linearGradient><linearGradient id="New_Gradient_Swatch_1-2" x1="487.36" x2="487.36" y2="122.06" xlink:href="#New_Gradient_Swatch_1"/><linearGradient id="New_Gradient_Swatch_1-3" x1="498.27" x2="498.27" y2="122.06" xlink:href="#New_Gradient_Swatch_1"/><linearGradient id="New_Gradient_Swatch_1-4" x1="252.35" x2="252.35" y2="122.06" xlink:href="#New_Gradient_Swatch_1"/><linearGradient id="New_Gradient_Swatch_1-5" x1="423.12" x2="423.12" y2="122.06" xlink:href="#New_Gradient_Swatch_1"/><linearGradient id="New_Gradient_Swatch_1-6" x1="344.13" x2="344.13" y2="122.06" xlink:href="#New_Gradient_Swatch_1"/><linearGradient id="New_Gradient_Swatch_1-7" x1="493.5" x2="493.5" y2="122.06" xlink:href="#New_Gradient_Swatch_1"/><linearGradient id="New_Gradient_Swatch_1-8" x1="478.02" x2="478.02" y2="122.06" xlink:href="#New_Gradient_Swatch_1"/><linearGradient id="New_Gradient_Swatch_1-9" x1="454.27" x2="454.27" y2="122.06" xlink:href="#New_Gradient_Swatch_1"/><linearGradient id="New_Gradient_Swatch_1-10" x1="386.02" x2="386.02" y2="122.06" xlink:href="#New_Gradient_Swatch_1"/><linearGradient id="New_Gradient_Swatch_1-11" x1="500.39" x2="500.39" y2="122.06" xlink:href="#New_Gradient_Swatch_1"/><linearGradient id="New_Gradient_Swatch_1-12" x1="205.69" x2="205.69" y2="122.06" xlink:href="#New_Gradient_Swatch_1"/><linearGradient id="New_Gradient_Swatch_1-13" x1="161.07" x2="161.07" y2="122.06" xlink:href="#New_Gradient_Swatch_1"/><linearGradient id="New_Gradient_Swatch_1-14" x1="299" x2="299" y2="122.06" xlink:href="#New_Gradient_Swatch_1"/><linearGradient id="New_Gradient_Swatch_1-15" x1="457.38" x2="457.38" y2="122.06" xlink:href="#New_Gradient_Swatch_1"/><linearGradient id="New_Gradient_Swatch_1-16" x1="232.1" x2="232.1" y2="122.06" xlink:href="#New_Gradient_Swatch_1"/><linearGradient id="New_Gradient_Swatch_1-17" x1="267.6" x2="267.6" y2="122.06" xlink:href="#New_Gradient_Swatch_1"/><linearGradient id="New_Gradient_Swatch_1-18" x1="195.1" x2="195.1" y2="122.06" xlink:href="#New_Gradient_Swatch_1"/><linearGradient id="New_Gradient_Swatch_1-19" x1="260.2" x2="260.2" y2="122.06" xlink:href="#New_Gradient_Swatch_1"/><linearGradient id="New_Gradient_Swatch_1-20" x1="226.2" x2="226.2" y2="122.06" xlink:href="#New_Gradient_Swatch_1"/><linearGradient id="New_Gradient_Swatch_1-21" x1="288.3" x2="288.3" y2="122.06" gradientTransform="translate(-4.85 -31.03)" xlink:href="#New_Gradient_Swatch_1"/><linearGradient id="New_Gradient_Swatch_1-22" x1="316.5" x2="316.5" y2="122.06" xlink:href="#New_Gradient_Swatch_1"/><linearGradient id="New_Gradient_Swatch_1-23" x1="257.2" x2="257.2" y2="122.06" xlink:href="#New_Gradient_Swatch_1"/><linearGradient id="New_Gradient_Swatch_1-24" x1="188" x2="188" y2="122.06" xlink:href="#New_Gradient_Swatch_1"/><linearGradient id="New_Gradient_Swatch_1-25" x1="240" x2="240" y2="122.06" xlink:href="#New_Gradient_Swatch_1"/><linearGradient id="New_Gradient_Swatch_1-26" x1="410.7" y1="127.3" x2="132.9" y2="405.1" xlink:href="#New_Gradient_Swatch_1"/></defs><path class="cls-1" d="M408,440.4c-101.8,84-252.5,69.5-336.4-32.4A239,239,0,0,1,81.2,93l11,11a6.54,6.54,0,0,0,11.1-3.5l7.5-41.1a6.59,6.59,0,0,0-5.3-7.7,8.85,8.85,0,0,0-2.3,0L61.7,58.9A6.57,6.57,0,0,0,58.1,70L72.6,84.5c-94.7,101.2-89.5,260,11.7,354.8a251,251,0,0,0,331.2,10.4,6.12,6.12,0,0,0,.8-8.5,6,6,0,0,0-8.3-.8ZM97.7,64.8,93.4,88.1,74.1,68.9Z" transform="translate(-4.85 -5.03)"/><path class="cls-2" d="M492.9,318.6a6,6,0,0,0-7.4,4.1h0c-2.2,7.5-4.7,14.9-7.6,22.1a6,6,0,1,0,11.1,4.5h0c3-7.6,5.7-15.4,8-23.2a6.11,6.11,0,0,0-4.1-7.5Z" transform="translate(-4.85 -5.03)"/><path class="cls-3" d="M500.5,272.3a6,6,0,0,0-6.5,5.4h0a231.25,231.25,0,0,1-3.3,23.2,6,6,0,0,0,11.8,2.2c1.5-8,2.7-16.2,3.4-24.3A5.89,5.89,0,0,0,500.5,272.3Z" transform="translate(-4.85 -5.03)"/><path class="cls-4" d="M240.3,17.5h.4a228.36,228.36,0,0,1,23.4-.3,6,6,0,0,0,6.2-5.8,6.08,6.08,0,0,0-5.8-6.2c-8.1-.3-16.4-.2-24.5.3a6,6,0,0,0-5.6,6.4,5.92,5.92,0,0,0,5.9,5.6Z" transform="translate(-4.85 -5.03)"/><path class="cls-5" d="M436.1,89.8a6,6,0,0,0,.1-8.5c-5.7-5.9-11.7-11.5-17.9-16.8a6,6,0,1,0-7.9,9.1l.1.1c5.9,5,11.7,10.4,17.1,16a6.1,6.1,0,0,0,8.5.1Z" transform="translate(-4.85 -5.03)"/><path class="cls-6" d="M331.1,29c7.4,2.4,14.7,5.3,21.8,8.4a6,6,0,0,0,4.9-11c-7.5-3.3-15.2-6.3-22.9-8.9a6,6,0,0,0-7.6,3.8,6,6,0,0,0,3.8,7.7Z" transform="translate(-4.85 -5.03)"/><path class="cls-7" d="M484.9,187.1c2.2,7.4,4.1,15.1,5.6,22.7a5.86,5.86,0,0,0,7,4.7,6,6,0,0,0,4.7-7h0c-1.6-8-3.6-16-5.9-23.9a6,6,0,0,0-7.5-4,6.16,6.16,0,0,0-3.9,7.5Z" transform="translate(-4.85 -5.03)"/><path class="cls-8" d="M467.6,144.7c3.6,6.9,6.9,14,9.9,21.2a6,6,0,1,0,11.2-4.4v-.1c-3.1-7.6-6.6-15.1-10.4-22.3a6,6,0,0,0-10.7,5.6Z" transform="translate(-4.85 -5.03)"/><path class="cls-9" d="M456.2,125.4a6,6,0,0,0,10.1-6.5v-.1c-4.5-6.8-9.3-13.5-14.4-19.9a5.93,5.93,0,0,0-8.4-.9,6,6,0,0,0-.9,8.4C447.3,112.5,452,118.9,456.2,125.4Z" transform="translate(-4.85 -5.03)"/><path class="cls-10" d="M373,47.5A227.06,227.06,0,0,1,392.8,60a6,6,0,1,0,6.8-9.8c-6.7-4.7-13.7-9.1-20.8-13.1a6.06,6.06,0,0,0-8.2,2.3A6,6,0,0,0,373,47.5Z" transform="translate(-4.85 -5.03)"/><path class="cls-11" d="M499.2,225.4a6.05,6.05,0,0,0-5.4,6.6,227.74,227.74,0,0,1,1.2,23.4,6,6,0,0,0,6,6h0a6,6,0,0,0,6-6c0-8.2-.4-16.4-1.2-24.5a6.12,6.12,0,0,0-6.6-5.5Z" transform="translate(-4.85 -5.03)"/><path class="cls-12" d="M194,24.9a7.72,7.72,0,0,0,1.5-.2,221.61,221.61,0,0,1,22.9-4.8A6,6,0,1,0,216.5,8c-8.1,1.3-16.2,3-24.1,5a6,6,0,0,0-4.3,7.3A6.16,6.16,0,0,0,194,24.9Z" transform="translate(-4.85 -5.03)"/><path class="cls-13" d="M150,41.1a5.83,5.83,0,0,0,2.6-.6c7-3.4,14.3-6.4,21.6-9.1a6,6,0,0,0-4.1-11.3c-7.7,2.8-15.3,6-22.6,9.5a6,6,0,0,0-2.8,8,5.46,5.46,0,0,0,5.3,3.5Z" transform="translate(-4.85 -5.03)"/><path class="cls-14" d="M286.5,18.9c7.7,1,15.5,2.4,23,4.1a6.11,6.11,0,0,0,7.2-4.5,6,6,0,0,0-4.5-7.2h0C304.2,9.5,296.1,8,288,7a6,6,0,1,0-1.8,11.8.37.37,0,0,0,.3.1Z" transform="translate(-4.85 -5.03)"/><path class="cls-15" d="M480.9,399.8l-12.8-9.4c4-6.3,7.8-12.9,11.2-19.6a6,6,0,1,0-10.7-5.5c-3.1,6.1-6.6,12.1-10.2,18L443,372a6.66,6.66,0,0,0-9.2,1.4,7.19,7.19,0,0,0-1.3,3.7l-1.2,40.8a6.66,6.66,0,0,0,6.4,6.8,9.08,9.08,0,0,0,2.3-.3l39-13.1a6.56,6.56,0,0,0,4.1-8.3,5.51,5.51,0,0,0-2.2-3.2Zm-37.3,10.7.7-22.7,21,15.4Z" transform="translate(-4.85 -5.03)"/><path class="cls-16" d="M232.1,197.9a6.6,6.6,0,1,0,6.6,6.6A6.59,6.59,0,0,0,232.1,197.9Z" transform="translate(-4.85 -5.03)"/><path class="cls-17" d="M267.6,221.6A6.6,6.6,0,1,0,261,215h0A6.66,6.66,0,0,0,267.6,221.6Z" transform="translate(-4.85 -5.03)"/><path class="cls-18" d="M195.1,369.7a6.6,6.6,0,1,0,6.6,6.6A6.59,6.59,0,0,0,195.1,369.7Z" transform="translate(-4.85 -5.03)"/><path class="cls-19" d="M253.6,377.8a6.6,6.6,0,1,0,6.6-6.6h0a6.47,6.47,0,0,0-6.6,6.6Z" transform="translate(-4.85 -5.03)"/><path class="cls-20" d="M226.2,340a6.6,6.6,0,1,0,6.6,6.6h0A6.73,6.73,0,0,0,226.2,340Z" transform="translate(-4.85 -5.03)"/><circle class="cls-21" cx="283.45" cy="341.67" r="6.6"/><path class="cls-22" d="M316.5,382.9a6.6,6.6,0,1,0-6.6-6.6h0A6.53,6.53,0,0,0,316.5,382.9Z" transform="translate(-4.85 -5.03)"/><path class="cls-23" d="M257.2,323.7a6.6,6.6,0,1,0-6.6-6.6A6.59,6.59,0,0,0,257.2,323.7Z" transform="translate(-4.85 -5.03)"/><path class="cls-24" d="M189,129h-2a6,6,0,0,0,0,12h2a6,6,0,0,0,0-12Z" transform="translate(-4.85 -5.03)"/><path class="cls-25" d="M271,129H209a6,6,0,0,0,0,12h62a6,6,0,0,0,0-12Z" transform="translate(-4.85 -5.03)"/><path class="cls-26" d="M224.8,266.8a95.27,95.27,0,0,0-63.9,89.8V396a23.21,23.21,0,0,0,4.4,46H346.7a23.27,23.27,0,0,0,4.4-46.1V356.5a95,95,0,0,0-63.9-89.8,15.46,15.46,0,0,1,0-29.3,95.27,95.27,0,0,0,63.9-89.8V116a23.21,23.21,0,0,0-4.4-46H165.3a23.27,23.27,0,0,0-4.4,46.1v31.8a95,95,0,0,0,63.9,89.8,15.47,15.47,0,0,1,9.7,19.6A15.28,15.28,0,0,1,224.8,266.8ZM357.9,418.9a11.18,11.18,0,0,1-11.2,11.2H165.3a11.2,11.2,0,0,1,0-22.4H346.7a11.12,11.12,0,0,1,11.2,11.2Zm-185-271.1V116.4h12.8a6,6,0,0,0,0-12H165.3a11.27,11.27,0,0,1-11.2-11.3V93a11.42,11.42,0,0,1,11.5-11.1h181a11.27,11.27,0,0,1,11.2,11.3v.1a11.42,11.42,0,0,1-11.5,11.1H225.7a6,6,0,0,0,0,12H339v31.4a80.8,80.8,0,0,1-4.6,27.1h-157a86,86,0,0,1-4.5-27.1Zm55.8,78.4a82.71,82.71,0,0,1-46-39.4H329.2a83,83,0,0,1-46,39.4,27.42,27.42,0,0,0,0,51.9A83.08,83.08,0,0,1,339,356.6v39H172.9v-39a83.18,83.18,0,0,1,55.8-78.5,27.42,27.42,0,0,0,0-51.9Z" transform="translate(-4.85 -5.03)"/></svg>