<svg width="136" height="37" viewBox="0 0 136 37" fill="none" xmlns="http://www.w3.org/2000/svg">
<path d="M5.30949 27.7041L5.19268 28.1964C5.19275 28.2901 5.23188 28.376 5.31007 28.4541C5.40388 28.5322 5.51328 28.5711 5.63828 28.571C5.76328 28.5709 5.8648 28.5084 5.94283 28.3833C8.26856 25.2878 10.1961 22.5675 11.7256 20.2226C13.255 17.862 14.3709 16.1268 15.0731 15.0169C15.791 13.9069 16.3607 13.0237 16.782 12.3671C17.9057 10.6475 19.0217 9.10757 20.13 7.74734C15.9121 8.8131 12.6078 9.3469 10.2172 9.34875C7.82657 9.35059 6.1077 9.20348 5.0606 8.90741C4.01348 8.59572 3.32572 8.2525 2.9973 7.87776C2.66888 7.48739 2.50451 7.09689 2.50421 6.70626C2.5039 6.30001 2.51922 5.90938 2.55018 5.53435C2.61208 4.75305 3.08033 4.11207 3.95495 3.61139C4.84519 3.1107 5.57937 2.86014 6.15749 2.85969C6.73562 2.85924 7.02475 2.94496 7.02488 3.11683C7.02501 3.28871 6.89238 3.52319 6.62699 3.82027C6.3772 4.10171 6.25235 4.29712 6.25244 4.40649C6.25282 4.90649 8.0577 5.1551 11.6671 5.15231C15.2765 5.14953 19.4245 4.66976 24.1113 3.71302C26.7971 1.52344 29.1166 0.4279 31.0697 0.426392C32.3666 0.42539 33.2262 0.791914 33.6487 1.52596C33.9302 1.96325 34.0712 2.40064 34.0715 2.83814C34.0719 3.27564 33.8144 3.71334 33.2991 4.15123C32.7995 4.58912 32.1201 4.96464 31.2609 5.27781C29.6989 5.84151 27.8555 6.28825 25.7307 6.61802C24.841 7.75933 23.5767 9.53374 21.9379 11.9413C20.3148 14.3488 19.2067 15.9746 18.6136 16.8188C18.0205 17.663 17.0607 19.1638 15.7343 21.3211C14.4234 23.4783 13.2842 25.3464 12.3167 26.9253C11.3492 28.4885 10.3191 30.0362 9.22654 31.5683C6.9946 34.7262 5.00363 36.3059 3.25363 36.3073C2.51926 36.3078 1.88629 36.113 1.35474 35.7228C0.82319 35.3326 0.557077 34.7 0.556401 33.825C0.555714 32.9343 1.03924 31.8324 2.00697 30.5192C2.99032 29.1903 3.70842 28.3382 4.16125 27.9628C4.61409 27.5875 4.91863 27.3997 5.07488 27.3996C5.23113 27.3995 5.30933 27.501 5.30949 27.7041ZM37.4108 17.2731C37.8796 17.2727 38.3563 17.4833 38.841 17.9048C39.3413 18.3263 39.5918 18.9745 39.5925 19.8495C39.5932 20.7089 39.2893 21.8341 38.681 23.2252C38.0727 24.6007 37.2379 26.0076 36.1765 27.4459C35.1151 28.8686 33.9442 30.2132 32.664 31.4799C31.3993 32.7308 30.0251 33.7631 28.5414 34.5768C27.0732 35.3748 25.7376 35.7743 24.5345 35.7752C23.3314 35.7761 22.3623 35.4019 21.6274 34.6524C20.908 33.8874 20.5478 32.833 20.5468 31.4892C20.5457 30.1298 20.8727 28.6296 21.5277 26.9885C22.1983 25.3473 23.0566 23.9013 24.1025 22.6505C25.1484 21.3841 26.2803 20.2504 27.4983 19.2495C30.0436 17.2006 32.2772 16.1755 34.199 16.174C35.0584 16.1733 35.707 16.3838 36.1448 16.8053C36.3012 16.9458 36.3794 17.0707 36.3795 17.1801L36.3796 17.3207C36.5983 17.2893 36.9421 17.2734 37.4108 17.2731ZM35.046 20.3921L34.882 20.3922C34.3351 20.3926 34.0614 19.9944 34.0607 19.1975C32.9204 19.5734 31.7256 20.2306 30.4763 21.169C29.227 22.1075 28.1107 23.2177 27.1273 24.4998C25.1293 27.0638 24.1154 29.2286 24.0855 30.9943C24.0861 31.8693 24.4068 32.3065 25.0474 32.3061C25.688 32.3056 26.6408 31.8829 27.9058 31.0382C29.1708 30.1935 30.4199 28.9894 31.653 27.4259C32.9018 25.8625 33.8305 24.5102 34.439 23.3691C35.0631 22.2124 35.375 21.4309 35.3747 21.0246C35.3743 20.6028 35.2648 20.3919 35.046 20.3921ZM46.7429 22.3518C50.4271 18.1615 53.5661 16.0653 56.1599 16.0633C56.8005 16.0628 57.3241 16.2577 57.7307 16.648C58.1528 17.0227 58.3641 17.5147 58.3646 18.1241C58.3651 18.7334 57.9284 19.7572 57.0545 21.1954C56.1962 22.6179 55.4003 23.8217 54.6666 24.8066C54.2764 25.3069 53.8313 25.5573 53.3313 25.5576C52.8469 25.558 52.464 25.3786 52.1824 25.0195C51.9165 24.6603 51.7834 24.2385 51.783 23.7542C51.7822 22.676 52.3594 21.4568 53.5146 20.0966L53.4677 20.0497C52.9521 20.097 51.6716 21.1136 49.6263 23.0996C47.5965 25.0855 45.8635 26.8681 44.4273 28.4473C43.0066 30.0109 41.4612 31.9184 39.7911 34.1697C39.3072 34.8419 38.8934 35.1782 38.5496 35.1784C38.2215 35.1787 37.7839 35.0775 37.2369 34.8748C36.6742 34.6564 36.3382 34.5005 36.2287 34.4068C36.1037 34.3131 36.041 34.1569 36.0409 33.9382C36.0407 33.7194 36.103 33.4694 36.2278 33.188C36.3526 32.8911 36.5866 32.4768 36.93 31.9453C37.2577 31.4138 37.757 30.554 38.428 29.366C39.1146 28.178 40.1757 26.3803 41.6113 23.9729C43.0469 21.5656 43.9052 20.1118 44.1861 19.6116C44.779 18.5799 45.2628 17.8295 45.6375 17.3605C46.3399 16.4693 47.527 16.0231 49.1989 16.0218C49.5739 16.0215 49.7616 16.2557 49.762 16.7245C49.7625 17.4588 49.0839 18.8422 47.7261 20.8745L46.7429 22.3518ZM63.5241 22.3388C67.2084 18.1485 70.3474 16.0523 72.9411 16.0503C73.5818 16.0498 74.1053 16.2447 74.5119 16.635C74.9341 17.0097 75.1454 17.5017 75.1459 18.1111C75.1463 18.7205 74.7096 19.7443 73.8357 21.1824C72.9774 22.605 72.1815 23.8087 71.4479 24.7937C71.0576 25.294 70.6125 25.5443 70.1125 25.5447C69.6282 25.5451 69.2452 25.3657 68.9637 25.0065C68.6978 24.6473 68.5646 24.2256 68.5643 23.7412C68.5634 22.6631 69.1406 21.4439 70.2958 20.0836L70.2489 20.0368C69.7333 20.084 68.4528 21.1007 66.4075 23.0866C64.3778 25.0726 62.6448 26.8551 61.2085 28.4344C59.7878 29.998 58.2424 31.9054 56.5723 34.1567C56.0884 34.829 55.6746 35.1652 55.3309 35.1655C55.0028 35.1657 54.5652 35.0645 54.0182 34.8618C53.4555 34.6435 53.1194 34.4875 53.01 34.3938C52.8849 34.3002 52.8223 34.144 52.8221 33.9252C52.822 33.7065 52.8843 33.4564 53.009 33.1751C53.1338 32.8781 53.3679 32.4639 53.7112 31.9324C54.0389 31.4009 54.5383 30.5411 55.2092 29.3531C55.8958 28.165 56.9569 26.3673 58.3926 23.96C59.8282 21.5526 60.6864 20.0988 60.9673 19.5986C61.5603 18.5669 62.0441 17.8165 62.4187 17.3475C63.1211 16.4563 64.3083 16.0101 65.9802 16.0088C66.3552 16.0085 66.5428 16.2428 66.5432 16.7115C66.5438 17.4459 65.8652 18.8292 64.5073 20.8615L63.5241 22.3388ZM88.7626 17.5615C88.7634 18.5928 88.3422 19.4994 87.4991 20.2813C86.6716 21.0632 85.7266 21.4545 84.6641 21.4553C84.3203 21.4556 84.0937 21.3776 83.9842 21.2215C83.8747 21.0497 83.8198 20.831 83.8196 20.5654C83.8194 20.2997 83.8505 20.0419 83.9128 19.7918C83.3504 19.9798 82.7256 20.2693 82.0384 20.6605C81.3513 21.0516 80.5079 21.6304 79.5085 22.3968C78.5091 23.1632 78.0096 23.7339 78.0099 24.1089C78.01 24.2339 78.1897 24.2963 78.5491 24.296C78.9241 24.2957 79.4943 24.1703 80.2597 23.9197C81.0251 23.6535 81.5563 23.5202 81.8532 23.52C82.1657 23.5198 82.3688 23.5352 82.4626 23.5664C82.6658 23.6756 82.8847 23.9176 83.1194 24.2925C83.354 24.6517 83.4714 24.9406 83.4716 25.1594C83.4718 25.3625 83.2689 25.6361 82.8629 25.9802C82.4569 26.3242 81.9962 26.5902 81.4807 26.7781C80.9652 26.9504 80.6215 27.0835 80.4497 27.1773C77.1543 29.0236 75.5068 30.2905 75.5074 30.978C75.5083 32.1968 76.5478 32.8053 78.6259 32.8037C79.9541 32.8027 81.2897 32.3798 82.6328 31.535C83.7729 30.8154 84.7957 30.088 85.7014 29.353C86.6227 28.6023 87.2005 28.1409 87.4347 27.9688C87.6846 27.7967 87.872 27.7107 87.997 27.7106C88.4033 27.7103 88.6067 28.1632 88.6074 29.0695C88.6081 29.9757 88.5539 30.5773 88.4448 30.8743C88.3356 31.1556 88.0234 31.5074 87.5081 31.9297C84.1664 34.651 81.0034 36.0128 78.0191 36.0152C76.4253 36.0164 75.1517 35.7986 74.1982 35.3619C72.4476 34.5663 71.5717 33.3483 71.5704 31.7076C71.5687 29.5514 73.0597 27.9174 76.0432 26.8057C75.4492 26.5406 75.0662 26.2049 74.894 25.7988C74.7218 25.3771 74.6353 24.7131 74.6346 23.8068C74.6339 22.8849 75.055 21.9159 75.898 20.8996C76.7566 19.8677 77.8028 19.0231 79.0367 18.3659C81.7855 16.8794 84.2381 16.1353 86.3943 16.1337C86.91 16.1333 87.4335 16.2579 87.9649 16.5075C88.4964 16.7571 88.7623 17.1084 88.7626 17.5615ZM100.117 31.4746C100.118 32.1621 100.587 32.5055 101.524 32.5048C102.024 32.5044 102.649 32.2539 103.399 31.7534C104.164 31.2528 104.851 30.7054 105.46 30.1111C107.084 28.5005 108.005 27.6951 108.224 27.695C108.63 27.6946 108.833 28.2804 108.834 29.4523C108.835 30.6242 108.469 31.4291 107.735 31.8672C105.502 33.8846 103.776 35.1124 102.558 35.5509C101.87 35.7858 101.113 35.8958 100.285 35.8808C99.4564 35.8658 98.6359 35.507 97.8228 34.8045C97.0098 34.102 96.6029 33.2508 96.6021 32.2508C96.6013 31.2352 96.866 30.0865 97.3963 28.8049C97.9266 27.5232 98.4648 26.429 99.011 25.5224C99.5727 24.6001 100.259 23.537 101.071 22.3333C101.883 21.1139 102.312 20.3558 102.358 20.0589L102.311 20.012C101.796 20.0593 100.515 21.0759 98.47 23.0619C96.4403 25.0478 94.7619 26.7757 93.4349 28.2454C92.1079 29.7152 90.5235 31.6774 88.6817 34.1319C88.1666 34.8042 87.7449 35.1405 87.4168 35.1407C87.0887 35.141 86.6511 35.0397 86.1041 34.837C85.5414 34.6187 85.1975 34.4627 85.0725 34.3691C84.9474 34.2754 84.8848 34.1348 84.8846 33.9473C84.8845 33.7598 84.939 33.5332 85.0482 33.2675C85.1573 32.9862 85.2665 32.7596 85.3758 32.5876C85.4694 32.4 85.6332 32.1186 85.8673 31.7435C86.1014 31.3683 86.5617 30.5789 87.2483 29.3752C87.9505 28.1559 89.0194 26.3426 90.455 23.9352C91.8907 21.5279 92.7489 20.0741 93.0298 19.5739C93.6228 18.5422 94.1065 17.7918 94.4812 17.3227C95.1836 16.4316 96.3708 15.9853 98.0427 15.9841C98.4177 15.9838 98.6053 16.218 98.6057 16.6867C98.6063 17.4211 97.9276 18.8045 96.5698 20.8368L95.5866 22.3141C98.2874 19.312 100.567 17.4118 102.426 16.6135C103.332 16.2222 104.144 16.0262 104.863 16.0257C105.597 16.0251 106.176 16.22 106.598 16.6103C107.036 17.0006 107.255 17.4379 107.255 17.9223C107.255 18.391 107.092 18.9614 106.764 19.6336C106.437 20.2901 106.101 20.8841 105.758 21.4156C105.43 21.9315 104.993 22.5881 104.447 23.3854C103.901 24.1827 103.604 24.6204 103.557 24.6986C103.51 24.7611 103.386 24.9487 103.183 25.2613C102.995 25.5584 102.855 25.7772 102.761 25.9179C102.668 26.0586 102.512 26.3087 102.293 26.6683C102.075 27.0122 101.895 27.3014 101.755 27.5359C101.63 27.7704 101.466 28.0595 101.263 28.4035C101.076 28.7473 100.92 29.0443 100.795 29.2944C100.686 29.5445 100.569 29.818 100.444 30.115C100.226 30.6621 100.117 31.1153 100.117 31.4746ZM122.737 4.87905L123.698 5.11268C123.839 5.11257 123.964 5.18279 124.073 5.32333C124.183 5.46387 124.238 5.59664 124.238 5.72164C124.238 5.84664 124.074 6.18271 123.746 6.72983C123.419 7.27696 123.029 7.90226 122.576 8.60574C122.139 9.29358 121.905 9.66876 121.874 9.73128C123.092 9.63659 123.952 9.58905 124.452 9.58867C124.967 9.58827 125.319 9.62706 125.507 9.70504C125.694 9.76739 125.905 9.96254 126.14 10.2905C126.39 10.6028 126.617 10.8448 126.82 11.0165C127.023 11.1726 127.125 11.4147 127.125 11.7429C127.126 12.071 126.923 12.3524 126.517 12.5871C126.126 12.8061 125.704 12.9393 125.251 12.9865C121.627 13.3487 119.627 13.5377 119.252 13.5536C117.988 15.4921 116.216 18.5169 113.938 22.628C111.676 26.7235 110.475 29.287 110.335 30.3183C110.273 30.7871 110.242 31.17 110.242 31.4668C110.243 32.0762 110.563 32.3806 111.204 32.3802C111.844 32.3797 112.555 32.1369 113.336 31.6519C114.117 31.1513 114.835 30.6117 115.491 30.0331C117.24 28.4692 118.177 27.6873 118.302 27.6872C118.708 27.6869 118.912 28.3898 118.913 29.7961C118.913 30.5617 118.562 31.2495 117.86 31.8594C116.283 33.22 114.955 34.2444 113.878 34.9328C112.8 35.6211 111.722 35.9657 110.644 35.9665C110.41 35.9667 110.191 35.9434 109.988 35.8967C108.738 35.6633 107.815 35.2109 107.221 34.5395C106.642 33.8524 106.353 32.9308 106.352 31.7745C106.366 30.6183 106.709 29.2196 107.38 27.5784C108.066 25.9216 108.924 24.1632 109.954 22.303C111.639 19.2704 113.324 16.4254 115.01 13.7678L114.119 13.8857C112.307 14.0902 111.252 14.1926 110.955 14.1928L110.744 14.193C110.291 14.1934 109.854 14.1078 109.432 13.9362C109.01 13.749 108.799 13.5226 108.798 13.257C108.798 12.9914 108.907 12.7335 109.126 12.4833C109.36 12.2331 109.501 12.0377 109.547 11.897C109.656 11.5532 110.062 11.1701 110.765 10.7477C111.484 10.3252 112.022 10.1061 112.382 10.0902C112.741 10.0586 113.085 10.0349 113.413 10.0191C113.757 10.0032 114.132 9.98726 114.538 9.97132C114.96 9.95537 115.28 9.9395 115.499 9.9237L117.608 9.82832C118.919 7.85856 119.817 6.59224 120.301 6.02937C120.8 5.46648 121.089 5.16157 121.167 5.11464C121.245 5.05208 121.401 5.02071 121.636 5.02053L122.737 4.87905ZM119.523 30.3815L119.499 30.7566C119.5 31.1472 119.648 31.483 119.945 31.764C120.243 32.045 120.516 32.1855 120.766 32.1853C122.641 32.1838 124.297 31.9013 125.734 31.3377C127.187 30.7741 127.913 30.211 127.913 29.6485C127.912 29.3829 127.647 29.1565 127.115 28.9694C126.599 28.7667 125.716 28.5252 124.466 28.2449C123.232 27.949 122.333 27.7231 121.77 27.5673C121.208 27.3959 120.762 27.24 120.434 27.0996C120.106 26.9592 119.77 26.7642 119.426 26.5144C118.691 25.9994 118.323 25.234 118.322 24.2184C118.322 23.1872 118.696 22.1712 119.445 21.1707C120.21 20.1544 121.162 19.2865 122.302 18.5669C123.443 17.8473 124.669 17.2135 125.981 16.6656C128.574 15.5855 130.753 15.0447 132.519 15.0434C134.253 15.042 135.323 15.4162 135.73 16.1659C135.856 16.4314 135.918 16.7283 135.918 17.0564L135.919 17.2204C135.919 18.0486 135.74 18.6971 135.381 19.1662C135.038 19.6352 134.483 20.0575 133.718 20.4331C132.968 20.8087 132.367 20.9966 131.914 20.997C131.476 20.9973 131.195 20.9663 131.07 20.9039C130.96 20.8415 130.867 20.7634 130.788 20.6697C130.71 20.5604 130.609 20.4824 130.484 20.4356C130.374 20.3888 130.319 20.2716 130.319 20.0841C130.319 19.8966 130.397 19.7091 130.553 19.5215C130.709 19.3182 130.819 19.1072 130.881 18.8884C129.85 18.9361 128.772 19.1791 127.647 19.6175C126.522 20.0402 125.554 20.5175 124.742 21.0494C123.945 21.5812 123.282 22.0896 122.751 22.5744C122.22 23.0591 121.955 23.4187 121.955 23.6531C121.955 23.8718 122.315 24.0513 123.033 24.1913C126.268 24.8295 128.394 25.3825 129.41 25.8505C130.426 26.3184 131.129 26.8491 131.52 27.4426C131.911 28.036 132.107 28.5749 132.107 29.0593C132.108 30.0593 131.711 31.0049 130.914 31.8962C130.118 32.7874 129.134 33.5147 127.963 34.0781C125.448 35.3145 123.253 35.9333 121.378 35.9348C119.519 35.9362 118.23 35.6482 117.511 35.0706C116.807 34.5086 116.455 33.837 116.454 33.0558C116.454 32.2745 116.648 31.5556 117.039 30.8991C117.444 30.2269 117.96 29.8906 118.585 29.8901C119.21 29.8896 119.522 30.0534 119.523 30.3815Z" fill="white"/>
</svg>
