<svg width="201" height="62" viewBox="0 0 201 62" fill="none" xmlns="http://www.w3.org/2000/svg">
<path d="M38.9745 6.03025L29.9502 5.65322C29.5235 5.65355 28.1175 8.21464 25.7321 13.3365C23.3467 18.4157 21.2812 23.3453 19.5355 28.1253C17.7899 32.9053 16.9179 36.362 16.9195 38.4953C16.9211 40.586 17.5833 41.6308 18.9059 41.6298C20.2713 41.6287 21.9769 40.2407 24.0227 37.4658C24.2359 37.2096 24.4491 37.0815 24.6624 37.0813C24.8758 37.0811 24.9826 37.2731 24.9829 37.6571C24.9832 38.0411 24.6851 38.7453 24.0885 39.7698C23.5346 40.7942 22.7888 41.9041 21.8511 43.0995C20.9133 44.2522 19.6981 45.2771 18.2055 46.1743C16.7128 47.1141 15.1772 47.5846 13.5985 47.5859C11.2519 47.5877 10.0773 45.9672 10.0748 42.7246C10.0717 38.7139 12.0931 31.8857 16.139 22.2399C19.0351 15.4536 21.6974 9.81959 24.1259 5.33772L23.2939 5.33836L16.7018 5.21545C13.0325 5.21828 9.83286 5.69008 7.10292 6.63086C5.60998 7.14401 4.41591 7.91294 3.5207 8.93763C2.66812 9.91962 2.24238 11.1146 2.24347 12.5226L2.75754 15.2102C2.75787 15.6369 2.5447 15.8504 2.11803 15.8507C1.56337 15.8511 1.11496 15.3182 0.7728 14.2518C0.43061 13.1427 0.259202 12.1828 0.258576 11.3721C0.257028 9.36681 0.725043 7.65979 1.66262 6.25106C2.6002 4.84234 3.87938 3.77468 5.50015 3.0481C8.5711 1.68039 11.9626 0.995106 15.6746 0.99224C19.3866 0.989374 23.5894 1.22079 28.2831 1.6865C32.9768 2.10955 37.2436 2.31958 41.0836 2.31662C44.9236 2.31365 47.4191 1.71439 48.5702 0.518838C48.6984 0.817407 48.7627 1.11602 48.7629 1.41469C48.764 2.82269 47.8689 3.95405 46.0775 4.80877C44.2861 5.62082 41.9185 6.02798 38.9745 6.03025ZM42.7841 20.4273L46.0481 20.4888L46.6881 20.4883C46.0485 20.9581 45.1322 22.3455 43.9393 24.6504C42.7891 26.9553 41.9158 28.7053 41.3194 29.9004C40.7656 31.0529 40.1268 32.632 39.4031 34.6379C38.7219 36.6011 38.3818 38.2014 38.3828 39.4387C38.3837 40.6761 38.8109 41.2944 39.6642 41.2937C40.2188 41.2506 40.9865 40.866 41.9673 40.14C42.9907 39.3712 43.8221 38.5812 44.4615 37.77C45.1435 36.9162 45.868 35.8489 46.635 34.5683C47.4446 33.2451 48.1264 32.1139 48.6804 31.1748C49.277 30.193 49.6179 29.702 49.7032 29.702C50.0019 29.7017 50.1516 30.107 50.1522 30.9176C50.1528 31.6856 49.94 32.4325 49.5139 33.1581C47.6816 36.1889 46.1687 38.5154 44.9753 40.1376C43.7819 41.7599 42.3324 43.2543 40.6268 44.621C38.9638 45.9449 37.4496 46.6074 36.0843 46.6085C33.6523 46.6104 32.4349 44.8193 32.4321 41.2353C32.4303 38.8033 32.8975 36.051 33.8338 32.9782C34.7701 29.9055 36.1544 26.9391 37.9869 24.079C36.4945 25.2748 35.0016 25.8733 33.5083 25.8745C33.039 25.8748 32.5482 25.7686 32.036 25.5556C29.0113 31.5313 27.371 34.5192 27.115 34.5194C26.9016 34.5196 26.7947 34.1783 26.7942 33.4957C26.7936 32.7703 27.0488 31.7888 27.5599 30.5511C28.1136 29.2706 28.6886 28.0542 29.2851 26.9017C29.9242 25.7492 30.265 25.109 30.3076 24.9809C28.771 24.2141 28.002 22.9774 28.0007 21.2707C28.0001 20.4174 28.2555 19.6492 28.7669 18.9661C29.3211 18.283 30.0675 17.9411 31.0062 17.9404C31.9448 17.9397 32.7131 18.2378 33.3108 18.8346C33.2257 19.0907 33.1833 19.4747 33.1837 19.9867C33.1846 21.1387 33.5907 22.0557 34.4019 22.7378C35.2557 23.3771 36.2799 23.6963 37.4746 23.6954C37.8159 23.6952 38.0719 23.6736 38.2426 23.6308C39.7342 21.4963 41.2481 20.4285 42.7841 20.4273ZM72.7391 29.4922C72.9951 29.492 73.1234 29.9186 73.1241 30.7719C73.1247 31.5826 72.7841 32.5642 72.1024 33.7167C71.4206 34.8692 70.7387 35.9577 70.0569 36.9823C69.4177 38.0068 68.5439 39.2021 67.4356 40.5683C66.3274 41.9345 65.2402 43.0233 64.1742 43.8348C61.4877 45.7995 58.7791 46.783 56.0484 46.7851C53.3604 46.7872 51.1839 46.1062 49.5189 44.7421C47.8538 43.3354 47.0201 41.2027 47.0179 38.3441C47.0146 33.9921 48.6114 29.9588 51.8086 26.2443C55.0057 22.5299 58.7376 20.671 63.0043 20.6677C64.9243 20.6662 66.4607 21.177 67.6135 22.2001C68.7662 23.1806 69.3431 24.3748 69.3442 25.7828C69.3461 28.1721 68.2169 30.093 65.9567 31.5454C63.6965 32.9978 61.0304 33.7252 57.9584 33.7276C56.1664 33.729 54.8435 33.4953 53.9898 33.0267C53.1808 35.2033 52.777 37.1236 52.7783 38.7876C52.781 42.3716 54.2971 44.1624 57.3264 44.1601C59.1184 44.1587 60.9525 43.4746 62.8288 42.1078C64.7477 40.6984 66.3679 39.1398 67.6892 37.4321C69.0532 35.6817 70.5873 33.1845 72.2914 29.9405C72.4619 29.6417 72.6111 29.4923 72.7391 29.4922ZM65.9512 24.4414C65.9502 23.2041 65.3524 22.5859 64.1578 22.5868C62.4938 22.5881 60.6385 23.6135 58.5921 25.6631C56.5457 27.7127 55.523 29.3775 55.524 30.6575C55.5246 31.5108 56.3356 31.9369 57.957 31.9356C59.5783 31.9343 61.263 31.1437 63.0111 29.5637C64.8019 27.9836 65.7819 26.2762 65.9512 24.4414ZM100.287 33.2469C98.7109 35.8935 97.2619 38.1133 95.9406 39.9063C94.662 41.6566 93.1912 43.1937 91.5282 44.5177C89.8652 45.8416 88.3511 46.5041 86.9857 46.5052C84.4684 46.5071 83.2087 45.1214 83.2065 42.3481C83.2044 39.5748 84.8001 34.0055 87.9936 25.6404C88.164 25.2563 88.249 24.8509 88.2487 24.4242C88.248 23.5282 87.6716 23.0807 86.5196 23.0815C85.4103 23.0824 84.3013 23.4459 83.1925 24.1721C82.1263 24.8556 81.1458 25.859 80.2508 27.1824C79.3558 28.4631 78.5462 29.7864 77.8219 31.1523C77.0976 32.4755 76.4161 34.012 75.7774 35.7618C75.1814 37.5116 74.6919 38.984 74.3088 40.179C73.9684 41.3312 73.6067 42.5902 73.2238 43.9558C72.8834 45.2787 72.692 46.0042 72.6494 46.1323L66.4414 46.1371C66.4407 45.2411 68.3141 40.0983 72.0615 30.7087C73.5941 26.3129 74.3598 23.2403 74.3584 21.4909C74.3581 21.0643 74.2938 20.7443 74.1657 20.5311L76.8537 20.529C78.347 20.5279 79.3071 20.6764 79.734 20.9748C80.1609 21.2731 80.3746 21.6783 80.375 22.1903C80.3753 22.7023 80.1415 23.7478 79.6734 25.3268C83.2547 21.9107 86.8588 20.2013 90.4854 20.1985C92.9174 20.1966 94.1343 21.305 94.136 23.5237C94.1365 24.249 94.0304 24.9744 93.8177 25.6999C93.6049 26.4254 93.0727 27.8765 92.221 30.0531C90.3474 34.8333 89.4112 38.034 89.4124 39.6553C89.4132 40.6793 89.7976 41.191 90.5656 41.1904C91.1203 41.19 91.888 40.8054 92.8687 40.0366C93.8921 39.2679 94.7235 38.4779 95.3629 37.6667C96.0449 36.8129 96.7694 35.767 97.5365 34.529C98.3462 33.2484 99.028 32.1386 99.5819 31.1995C100.136 30.2604 100.455 29.7908 100.541 29.7907C100.797 29.7905 100.925 30.1958 100.926 31.0064C100.926 31.7744 100.714 32.5213 100.287 33.2469ZM134.092 4.2288C132.685 5.25389 130.831 8.13532 128.531 12.8731C126.273 17.5682 124.272 22.5404 122.526 27.7897C120.781 32.9964 119.909 36.7731 119.911 39.1198C119.912 40.4851 120.275 41.1675 121.001 41.1669C121.726 41.1664 122.622 40.6963 123.688 39.7569C124.796 38.8173 125.585 38.0274 126.054 37.387C126.523 36.7467 127.14 35.7862 127.907 34.5056C128.717 33.1823 129.399 32.0511 129.953 31.112C130.549 30.1302 130.89 29.6393 130.976 29.6392C131.274 29.639 131.424 30.0442 131.425 30.8549C131.383 32.3482 129.615 35.4643 126.12 40.203C124.969 41.7399 123.584 43.1703 121.963 44.4942C120.343 45.8181 118.871 46.4806 117.549 46.4816C115.287 46.4833 114.155 44.7989 114.153 41.4282C114.151 38.9535 114.767 35.7744 116.001 31.8908C114.042 35.775 111.804 39.1474 109.289 42.008C106.774 44.8686 104.258 46.2999 101.741 46.3018C98.8819 46.304 97.4511 44.3424 97.448 40.4171C97.4457 37.4304 98.0834 34.4006 99.361 31.3276C100.681 28.2546 102.557 25.6505 104.987 23.5153C107.417 21.3374 110.04 20.2474 112.856 20.2452C115.715 20.243 117.679 21.1802 118.747 23.0567C119.939 20.7091 121.153 17.9988 122.388 14.9258C123.666 11.8529 124.496 9.86822 124.88 8.97192C125.306 8.03292 125.604 7.35003 125.774 6.92323C125.987 6.4964 126.243 6.09087 126.541 5.70664C127.01 5.10894 127.564 4.74585 128.204 4.61735C128.887 4.44616 129.954 4.36 131.404 4.35888C132.898 4.31506 133.793 4.2717 134.092 4.2288ZM118.427 23.8249C117.915 23.0573 117.061 22.674 115.866 22.6749C113.946 22.6764 112.006 23.6592 110.045 25.6234C108.126 27.5449 106.57 29.7861 105.378 32.347C104.228 34.8652 103.653 37.0843 103.655 39.0043C103.656 40.327 104.168 40.9879 105.192 40.9871C108.648 40.9845 113.06 35.2637 118.427 23.8249ZM146.68 12.0271L146.424 12.0273C145.57 12.0279 144.739 12.3913 143.928 13.1172C143.161 13.8431 142.607 14.5902 142.266 15.3585C141.157 14.9327 140.601 14.1651 140.6 13.0558C140.6 11.9464 141.111 10.8367 142.134 9.7266C143.157 8.57381 144.138 7.99705 145.077 7.99633C146.015 7.9956 146.719 8.20839 147.189 8.63469C147.659 9.061 147.894 9.61548 147.894 10.2982C147.895 10.9382 147.49 11.5145 146.68 12.0271ZM137.982 20.4818L141.182 20.5433L141.822 20.5428C141.14 21.0554 140.224 22.4427 139.073 24.705C137.966 26.9672 137.135 28.6745 136.581 29.8269C136.028 30.9793 135.389 32.5371 134.665 34.5004C133.984 36.4636 133.644 38.0638 133.645 39.3012C133.646 40.5385 134.051 41.1568 134.862 41.1562C135.417 41.1558 136.185 40.7925 137.165 40.0664C138.189 39.2977 139.02 38.5077 139.659 37.6965C140.299 36.8427 141.002 35.7755 141.769 34.4949C142.579 33.2143 143.26 32.1044 143.814 31.1653C144.411 30.2262 144.752 29.7566 144.837 29.7565C145.093 29.7563 145.222 30.1616 145.222 30.9722C145.223 31.7402 145.01 32.4871 144.584 33.2127C143.007 35.8593 141.558 38.0791 140.237 39.8721C138.958 41.6224 137.488 43.1595 135.825 44.4835C134.162 45.8074 132.648 46.4699 131.282 46.471C128.893 46.4728 127.697 44.8098 127.694 41.4818C127.69 36.3191 129.457 30.6004 132.993 24.3257C134.484 21.7645 136.147 20.4832 137.982 20.4818ZM172.475 33.1912C170.898 35.8377 169.449 38.0575 168.128 39.8505C166.849 41.6009 165.379 43.138 163.716 44.4619C162.053 45.7859 160.539 46.4484 159.173 46.4495C156.656 46.4514 155.396 45.0657 155.394 42.2924C155.392 39.519 156.988 33.9498 160.181 25.5847C160.351 25.2005 160.436 24.7951 160.436 24.3685C160.435 23.4725 159.859 23.0249 158.707 23.0258C157.598 23.0267 156.489 23.3902 155.38 24.1164C154.314 24.7999 153.333 25.8033 152.438 27.1266C151.543 28.4073 150.734 29.7306 150.009 31.0965C149.285 32.4198 148.604 33.9563 147.965 35.7061C147.369 37.4559 146.879 38.9283 146.496 40.1232C146.156 41.2755 145.794 42.5344 145.411 43.9001C145.071 45.223 144.879 45.9485 144.837 46.0765L138.629 46.0813C138.628 45.1853 140.502 40.0425 144.249 30.653C145.782 26.2571 146.547 23.1845 146.546 21.4352C146.546 21.0085 146.481 20.6886 146.353 20.4753L149.041 20.4733C150.534 20.4721 151.495 20.6207 151.921 20.919C152.348 21.2174 152.562 21.6226 152.562 22.1346C152.563 22.6465 152.329 23.6921 151.861 25.2711C155.442 21.855 159.046 20.1455 162.673 20.1427C165.105 20.1409 166.322 21.2493 166.323 23.4679C166.324 24.1933 166.218 24.9187 166.005 25.6442C165.792 26.3697 165.26 27.8207 164.409 29.9974C162.535 34.7775 161.599 37.9782 161.6 39.5996C161.601 40.6236 161.985 41.1353 162.753 41.1347C163.308 41.1343 164.075 40.7497 165.056 39.9809C166.08 39.2121 166.911 38.4221 167.55 37.611C168.232 36.7571 168.957 35.7112 169.724 34.4733C170.534 33.1927 171.215 32.0828 171.769 31.1437C172.323 30.2046 172.643 29.735 172.728 29.735C172.984 29.7348 173.113 30.14 173.113 30.9507C173.114 31.7187 172.901 32.4655 172.475 33.1912ZM198.036 20.4354L200.596 20.4335C199.701 21.0315 198.72 22.3336 197.655 24.3397C196.59 26.3459 195.674 28.3306 194.908 30.2939C194.184 32.2144 193.226 34.8605 192.034 38.2321C189.394 45.8288 187.094 50.8652 185.134 53.3414C183.173 55.8603 180.956 57.782 178.482 59.1065C176.051 60.4738 173.833 61.1581 171.828 61.1597C167.561 61.163 165.427 59.8206 165.424 57.1326C165.424 56.066 165.764 55.063 166.446 54.1238C167.085 53.1847 167.96 52.7147 169.069 52.7138C170.178 52.713 170.925 53.1604 171.31 54.0561C170.884 54.3124 170.543 54.7607 170.287 55.4009C170.074 56.041 169.968 56.6385 169.969 57.1931C169.969 57.7905 170.183 58.281 170.61 58.6646C171.079 59.0483 171.677 59.2398 172.402 59.2392C174.45 59.2377 176.305 58.1909 177.968 56.0989C179.63 54.0497 181.036 51.6592 182.186 48.9277C182.484 48.2021 184.528 42.5685 188.317 32.0269C183.29 41.5028 178.557 46.2425 174.12 46.2459C171.219 46.2482 169.767 44.2866 169.764 40.3613C169.761 37.3746 170.399 34.3448 171.676 31.2718C172.997 28.1988 174.872 25.5947 177.302 23.4594C179.733 21.2816 182.399 20.1915 185.3 20.1893C186.623 20.1883 187.882 20.4859 189.077 21.0824C190.314 21.6787 191.105 22.6595 191.447 24.0245C192.086 22.6587 192.832 21.7195 193.685 21.2068C194.58 20.6941 196.031 20.437 198.036 20.4354ZM191.191 24.6007C190.764 23.2357 189.76 22.5538 188.182 22.555C185.366 22.5572 182.615 24.5433 179.93 28.5134C177.288 32.4408 175.968 35.9405 175.97 39.0125C175.971 40.2925 176.484 40.9321 177.508 40.9313C178.617 40.9304 179.918 40.2468 181.41 38.8803C182.903 37.4711 184.245 35.8274 185.439 33.9492C189.274 28.0155 191.192 24.8994 191.191 24.6007Z" fill="white"/>
</svg>
